<svg xmlns="http://www.w3.org/2000/svg" viewBox="0 0 261.26 241.91"><defs><style>.cls-1{fill:#51beca;}</style></defs><g id="Calque_2" data-name="Calque 2"><g id="Calque_1-2" data-name="Calque 1"><path class="cls-1" d="M141.74,0c0,.12.1.35.16.35.8,0,1.34.24,1.15,1.2,0,.14,0,.37,0,.41,1,.65.83,1.7.82,2.85,1.11-.23,2.17.34,3.15-.36.85.47,1.92.4,2.68,1.14a12.75,12.75,0,0,1,2.73,4.5c.06.31-.42.52.32.84,1.33.58,2.78,1.16,3.41,2.79a2.25,2.25,0,0,0,1.7,1A2.19,2.19,0,0,1,160,16.12a1.87,1.87,0,0,0,1.79,1.25c.26,0,.64.36.78.64.6,1.15,2.13,1.48,2.44,2.85a6.38,6.38,0,0,1,.16,1.24c0,.93,0,1.88,0,2.81s.27,1.76.42,2.64a1.2,1.2,0,0,0,.18.57c.69.75.63,1.75.82,2.89.25-.67.4-1.09.55-1.51a6.61,6.61,0,0,0,.78,1.19c1.06,1,.44,2.52,1.1,3.67a11.37,11.37,0,0,1,.48,2.18c.64,2.11.61,2.87-.32,4.72-.27.54-.54,1.08-.76,1.63-.13.31-.33.76-.21,1,1,1.68,0,3.17-.3,4.74-.38,1.94-1.22,3.88-.17,5.87a1,1,0,0,1,0,.85c-1,1.52.19,2.68.6,4,.22.69,1.24,1.26.31,2.15,0,0,.18.61.36.66.74.21.8,1.07,1.36,1.35s.64,1.27,1.45,1.62c.48.21.61,1.14,1,1.69s.89,1.2,1.34,1.79a16.56,16.56,0,0,1,1.36,1.82c1,1.83,2.73,2.13,4.59,2.5A29.65,29.65,0,0,1,184.77,74c.91.34,2-.28,2.85.49.07.06.64-.27.81-.53.58-.93,1.47-.66,2.3-.75s1.13.52,1.56,1c1.17,1.2,1.16,1.16,2.49,1.24,1.1.06,2.19.27,3.29.42.07,0,.18,0,.21,0a2.39,2.39,0,0,0,2.56.94,6,6,0,0,1,2.83.38c1,.26,2,.67,3,1a3.08,3.08,0,0,0,.76.25c1.73.12,1.73.11,2.68,1,.41.39.74.82,1.44.73a3,3,0,0,1,2.57,1.1c.69.66,1.21,1.63,2.39,1.54.33.68,1.42.59,1.51,1.5,1.43.91,2.5,2.42,4.27,2.75a4.53,4.53,0,0,1,3.07,2.22,7.46,7.46,0,0,0,2.41,2.62,1.7,1.7,0,0,1,.3.3c.1.1.3.22.29.31-.19,1.37,1.6,2,1.32,3.36-.11.51.28.57.62.83a2,2,0,0,1,.67,1.84,2.81,2.81,0,0,0,.84,2.27,6.49,6.49,0,0,0,2.88,2.39c.67.38.6.22.63-.32,0-.22.23-.42.35-.63a2.11,2.11,0,0,1,.49.5c.12.23.08.56.23.76s.24.56.78.21,1.49-.58,1.72.6c2,.61,3.52,2,5.27,3a24.18,24.18,0,0,0,2.93,1.27,1.92,1.92,0,0,0,2.34-.3,1,1,0,0,1,1.35-.31c.88.49,1.7,1.28,2.82.5.07-.06.29.1.45.17.8.32,1.61.63,2.4,1a1.55,1.55,0,0,1,.52.47c.57.7,1,1.61,2,1.68.47,0,.57.19.6.63,0,.64-.26.72-.77.69-.18,0-.37.1-.54.37.4,0,.89.19,1.2,0,.66-.36,1-.12,1.51.31s-.17.66-.13,1c.07.57-.43.48-.74.43a3,3,0,0,1-1.12-.43c-1.28-.88-2.79-.94-4.22-1.33-2-.55-3.93-.3-5.9-.39-.62,0-1.28.14-1.77-.43-2.64-.13-5.19-1.13-7.87-.88-.72.07-1.45,0-2.17,0a7.11,7.11,0,0,1-2.87-.4c-.8-.33-1.74.2-2.66-.41-.69-.47-5.84,0-6.7.4s-1.66.8-1.94,1.45-.95.67-1.3,1.15a1.69,1.69,0,0,1-2.26.4,4.22,4.22,0,0,0-4.27.39,7.08,7.08,0,0,1-3.73,1c-1.3,0-2.62.3-3.93.38s-2.6,0-3.9,0c-.84,0-1.53.72-2.55.19a5.61,5.61,0,0,0-2.73-.19c-1.1.06-2.19.39-3.28.38a9.33,9.33,0,0,0-3,.69c-1,.34-2,.69-3,1.09a7.78,7.78,0,0,1-3.76.86,12.85,12.85,0,0,0-1.52,0,2.82,2.82,0,0,0-3,2,4.23,4.23,0,0,1-4.29,3.17,4.68,4.68,0,0,1-.65,0,7.4,7.4,0,0,0-5.18,1.65,25.33,25.33,0,0,1-4.19,2.42,40.51,40.51,0,0,1-5,1.56,13.7,13.7,0,0,1-2.21.43,13,13,0,0,1-2.16,0c-1.27-.07-2.41.68-3.73.5-.42-.06-1,.41-1.37.78a8.83,8.83,0,0,1-5,2.57c-1.36.22-2.57.81-3.88,1.13-.91.22-1.74.56-2.51-.27a16.37,16.37,0,0,0-2.92-.79,2.65,2.65,0,0,1-2.06-.76,6,6,0,0,0-4.41-1.43c-.86.07-1.75-.1-2.59,0-1.23.22-2.07-.64-3.1-.93-.27-.08-.38-.67-.63-1.15l2.13-.21a2,2,0,0,0,0-.25l-1.18-.09a1.68,1.68,0,0,1-1.82-1.61c-.18-1-.53-.07-.7-.14-1.6-.69-3.7,0-4.9-1.83-.14-.21-.61-.21-.93-.32-.13,0-.3-.06-.36-.16-.33-.52.53-1.61-1-1.65-.62,0-.73-1.1-.88-1.84-.1-.48-.77-.82-1.16-1.25s.32-1.22-.74-1.23c-.22,0-.38-.81-.66-1.18-.39-.52-.23-1.47-1.41-1.43-.47,0-1.17-.67-1.21-1.54a1.52,1.52,0,0,0-.68-1,.69.69,0,0,0-1,.59,25,25,0,0,0,0,2.6,6,6,0,0,0,.44,1.77c.2.49.64.89.82,1.39a1,1,0,0,1-.5,1.26,1.3,1.3,0,0,1-1.13,0c-.63-.57-1.59-.69-2.08-1.24-.83-1-1.8-.69-2.76-.7-.14,0-.33.32-.43.53s.79.5.13.69c-.39.12-1.13.43-1.44-.35-.71-1.75-.71-1.75-2.34-1.76-1.09,0-2.17,0-3.25,0-.56,0-1.37-.13-1.63.17a4.2,4.2,0,0,0-.57,1.9,19.55,19.55,0,0,0-.47,4.59c0,.5-.32,1-.4,1.55a6.46,6.46,0,0,0,.88,4c.33.62.66,1.07-.11,1.57-.42.28-.31.58-.13,1.06a5.83,5.83,0,0,1,.18,2.29c0,.2-.44.44-.73.54-.11,0-.39-.54-.52,0a3.11,3.11,0,0,0,.67,2.31c.29.47.64.89.9,1.37a1,1,0,0,1,.13.79c-.82,1.56-.29,3.21-.38,4.82a13.38,13.38,0,0,0,.39,2.2c.09.68-.12,1.39.42,2,.13.14,0,.55-.08.81s-.54.53,0,.52c1.59-.05,1.45,1,1.44,2a.76.76,0,0,0,.32.61c.06-.38.11-.75.17-1.11,1.22.87,1.23.87,1.24,2,0,.85,0,1.7,0,2.64h1c1.64,0,2.45.53,2.92,2.07.3,1,.41,2,.68,3.35.13-.83.22-1.35.36-2.17a6.53,6.53,0,0,0,.44,1c1.1,1.52.91,2.43-.65,3.54a5.85,5.85,0,0,0-1.64,1.61c-.39.66-.88,1.44-.25,2.31.18.25,0,.73.23,1,.39.51-.79.7-.17,1.25a2.66,2.66,0,0,1,.61,1c.18.48.61-.78,1,.27s1.3,1.87,1.27,3.17a2.48,2.48,0,0,0,.39,1.1c1,1.37.72,2.92.86,4.43.23,2.72-.59,5.35-.47,8.06.07,1.69.07,1.8,1.19,3.62.32.51.48,1.11.79,1.62s1.07,1.1,1,1.5a5.63,5.63,0,0,1-1.3,1.82,3.26,3.26,0,0,1-.45.46,16.22,16.22,0,0,0-4.7,7.59,3.48,3.48,0,0,1-1.62,2.07,7.38,7.38,0,0,0-2.31,2.31,6.34,6.34,0,0,1-2,2.2c-.92.48-1.39,1.52-2.4,2s-1.82,1.69-2.89,2.42a46.76,46.76,0,0,0-4,3.47,6,6,0,0,1-1.67,1.2,3.19,3.19,0,0,0-2.07,3.23A3.29,3.29,0,0,1,80.3,228a2.75,2.75,0,0,0-.52.65c-.48.73-.33,1.76-1.16,2.34a21.51,21.51,0,0,0-2.12,1.69,3,3,0,0,1-2.26.83c-1.24,0-2.5.17-3.63-.67-.49-.37-1-.47-1.39.48-.26.66-.86,1,0,1.59.11.07,0,.47,0,.72l-1-.07c.08-.45-.61-.68-.33-1.2a.6.6,0,0,0,0-.45,8.73,8.73,0,0,0-.45-.78,5.21,5.21,0,0,0-1,.86c-.22.29-.5.9-.37,1.05.51.6.25.63-.32.64s-.67-.1-.64-.59c0-.34,0-.69,0-1.53-.38.85-.46,1.38-.77,1.65s-.89.26-1.31.47a32.53,32.53,0,0,0-3.52,1.95A9.47,9.47,0,0,1,56,239.26a11.23,11.23,0,0,0-2.72,1.25,3,3,0,0,1-1.57.41,7.06,7.06,0,0,0-3.21.63c-1.54.72-3.28.2-4.9-.26-.26-.07-.4-.54-.64-.79-.53-.55-.72-1.31-1.43-1.82s-.64-1.65-.51-2.45c.09-.56-.74-1.28.21-1.7-.36-.56-.2-1.24-.38-1.86s.18-1.54-.09-2.13c-.85-1.83-1.52-3.86-3.61-4.75-1.67-.72-3.9-2.08-4.46-3.25a10.86,10.86,0,0,0-1.9-2.23,6.48,6.48,0,0,1-1.7-2.77,2.36,2.36,0,0,0-.44-.69A7.84,7.84,0,0,1,27.38,215c-.21-.68-1.21-.9-.92-1.8,0-.1-.06-.26-.14-.37a9.65,9.65,0,0,1-2-6.31c0-.38.25-.86-.28-1.13a7.72,7.72,0,0,0-1.18,0,.77.77,0,0,1-1.13-.67,1.58,1.58,0,0,0-.32-1c-.06.53-.11,1.06-.2,1.58,0,.07-.23.14-.35.14s-.35-.09-.36-.15c0-.5-.06-1-.07-1.49a13.16,13.16,0,0,0-.43-4.59c-.07-.19,0-.54-.13-.57-.5-.17-.05-1-.86-1s.66-.74-.22-1c-.35-.11-.48-.79-.79-1.14a5.5,5.5,0,0,1-1.44-3.73c0-1.88.29-3.76.49-5.64.09-.8-.11-4.16-.54-4.67-1.2-1.45-1.22-3.27-1.71-4.94-.1-.32-.17-.65-.26-1a9.75,9.75,0,0,1-.17-3c.11-.6-.31-1.3.33-1.8-.47-.59-.1-1.41-.39-1.92s0-1-.21-1.52a3.26,3.26,0,0,1,.22-2.58c.27-.74.34-1.63.55-2.38.53-1.88-.28-3.26-1.29-4.56a1.76,1.76,0,0,1-.3-2.09c.23-.48.42-1,.62-1.48.36-.95-.43-1.71-.47-2.62,0-.31-.33-.6,0-.93-.74-.57.55-1.22-.05-1.77s-.15-1.38-.35-2a3.88,3.88,0,0,0-.75-1.63,6.06,6.06,0,0,1-1.33-2.92,8.89,8.89,0,0,1-.52-3.91c.08-.42-.08-.9,0-1.29s-.73-.46-.2-1.05c.37-.41-.56-.1-.58-.42-.13-1.71-1.18-3.58.19-5.08a3.42,3.42,0,0,0,.47-4.15c-1.17-2.48-2-5.09-3.36-7.5-.28-.52-.36-1.15-.59-1.7s-.93-.89-1.06-1.25a3.82,3.82,0,0,0-.81-1.17,12.94,12.94,0,0,1-1.86-3.33c-.49-1.25-.65-2.61-1.7-3.64-.58-.57-.32-1.6-.67-2.3a1.64,1.64,0,0,1,.18-2.1c-.28-2.14,1.39-3.86,1.3-6,0-.06.08-.11.12-.17,1.81-2.29,1-5,1.17-7.53A3,3,0,0,0,2,87.48a2.36,2.36,0,0,1,.33-3.64c1.34-.72,2.21-2,3.69-2.59S7.56,79,7.82,77.55c.13-.67-.22-1.44.45-2,0-2.28,2-2.65,3.39-3.63,1.48.06,1.82-1.16,2.22-2.13,1-2.48,1.75-2.68,3.46-2.66,5.56,0,11.12.06,16.68,0a2.59,2.59,0,0,1,2.38,1.08c.19.27.29.61.48.89s.7.73.83,1.17c.26.89.54-.38.86.07.44.61,1.27,1,.83,2,1-.29,1.11-1.25,2-1.33,1.27-.12,2.43.15,2.91,1.29.61,1.43,2,1.94,3,2.8.73.63,1.48,1.26,2.23,1.89a5.31,5.31,0,0,0,1.06.55,1.77,1.77,0,0,1,.54.24c.81.78,1.1.84,1.83.32a1.33,1.33,0,0,1,2.08.8,6.82,6.82,0,0,1,.19.78c.28-.63.75.08,1.07-.16a1,1,0,0,1,1.49.11c.09.11.25.2.25.31,0,.43-1-.15-.62.61a6.61,6.61,0,0,0,.84,1,18.8,18.8,0,0,1,.84-1.81c.4-.63,1.18-.79,1.59-.22.82,1.14,1.94,1,3.07,1s2.05.27,3.07.42a.63.63,0,0,1,.34.22c.89,1.08,2.2,1.79,2.77,3.18.34.81.4.78-.55.93a7,7,0,0,0-.67.21,3.46,3.46,0,0,0,.83.21,3.73,3.73,0,0,1,2.67.9c.75.53,1.79.7,2.48,1.28.87.75,1.78.4,2.65.4a9.75,9.75,0,0,0,2.93-.2,14.29,14.29,0,0,1,3.6-.18c-.07.2-.27.53-.2.59a6.79,6.79,0,0,0,1,.69c.92.61,1,1.22.2,2a8.61,8.61,0,0,0-1.75,2.53,4.4,4.4,0,0,0-.31,1.82.92.92,0,0,0,.89,1c.41.07,1,0,1.18.22a3.91,3.91,0,0,1,.5,1.73,12.15,12.15,0,0,0,.31,2.78,9,9,0,0,1,.15-1.06,2.84,2.84,0,0,1,.36-.63,2.46,2.46,0,0,1,.68.43,1.66,1.66,0,0,1,.24.75c.09.54-.17,1.11.36,1.6.25.24.13.67-.4.69a1.06,1.06,0,0,0-.35.18c.09.08.17.23.27.24a3.35,3.35,0,0,0,2.9-.82c1.18-1.19,2.58-2.23,3-3.93.2-.72.78-.85,1.23-1.19s.71-.39,1-.62c.56-.4,1.06-1,1.67-1.18a15.19,15.19,0,0,1,3.49-.46c1.1,0,2.14.51,3.29.46.7,0,.89.76.81,1.48s.15.67.63.25c.23-.18.77,0,1-.2.54-.48.5-.12.56.27,0,.11.15.2.23.29.06-.12.2-.24.18-.35a8.12,8.12,0,0,0-.25-1A3,3,0,0,1,108,93.34c.17-.1.54.23.82.23a2.42,2.42,0,0,0,1.21-.19c.29-.16,0-1.46-.37-1.72s-.5-.19-.73-.32c-.78-.44-1-2.1.1-2.47a4.26,4.26,0,0,0,2.68-2.32c.73-1.61,1.62-3.17,1.42-5,0-.44-.36-.83-.38-1.13a9.1,9.1,0,0,1,.28-3.3,8,8,0,0,1,1.31-2.73,7.6,7.6,0,0,1,3.32-2.94,2.82,2.82,0,0,1,2.19-.24c1.54.86,2.88.09,4.11-.42a10.74,10.74,0,0,0,4.09-2.68c.87-1,1-1.43.11-2.52-.33-.41-.42-.66,0-1.06.61-.62-.47-.88-.39-1.48,0-.26-.5-.55-.12-1,1.13-1.52.64-3.11.08-4.68a2.53,2.53,0,0,1-.27-1,3.09,3.09,0,0,0-.24-2.14c-.36,0,0,1.49-1,.4s-2.47-1.15-3.79-1.23a6.16,6.16,0,0,1-5-2.51,22.65,22.65,0,0,1-2.13-4.3c-.54-1.29-.89-2.67-1.33-4-.06-.19-.12-.44-.26-.53-1.37-.87-1-2.23-1-3.48,1-1.09-.11-2-.24-3l-.09-.74a2.14,2.14,0,0,0,.65.31,2,2,0,0,0,2.67-1.39,2.86,2.86,0,0,0-.5-2.35c-.21-.36-2.2-.16-2.61.19a3.52,3.52,0,0,0-.6.62,3.9,3.9,0,0,0-.32.84c-.18-.36-.33-.63-.46-.9a2.88,2.88,0,0,1,.13-3.31,6.72,6.72,0,0,0,.9-3.07,3.57,3.57,0,0,1,1.15-2.34A13.32,13.32,0,0,1,116.1,21c.57-.28.94-1,1.37-1.56a8.8,8.8,0,0,1,3.07-2.81c.36-.18.7-.4,1-.61.55-.34.67-.72.24-1.29a2.19,2.19,0,0,1,.21-3,2.35,2.35,0,0,1,3-.66,2.27,2.27,0,0,0,3.11-1,3.89,3.89,0,0,1,2.67-1.85,4.19,4.19,0,0,0,2.88-2.42,11.56,11.56,0,0,1,1.79-3.17c.43-.43.71-1,1.12-1.44s.86-.78,1.29-1.17ZM114.87,104.42c-.6.55-1.41.39-2.13.48a9.42,9.42,0,0,1,1.27,1.45v-.19a1.08,1.08,0,0,0-.33.13s0,.17.07.26a.67.67,0,0,0,.26-.39,1.41,1.41,0,0,1,.41,0c.27.09.53.2.79.31-.07-.29-.18-.57-.22-.86a3.23,3.23,0,0,1,.14-1.58l-.26.2.2.19a1.74,1.74,0,0,0,.19-.26s-.08-.08-.39.26m-1.58,2.67-.15.15a1.92,1.92,0,0,0,.29.14s.1-.09.14-.14l-.28-.15"/></g></g></svg>