<svg xmlns="http://www.w3.org/2000/svg" viewBox="0 0 177.82 225.05"><defs><style>.cls-1{fill:#51beca;}</style></defs><g id="Calque_2" data-name="Calque 2"><g id="Calque_1-2" data-name="Calque 1"><path class="cls-1" d="M26.68,225.05h-.9c-.78-.51-1.88-.84-2.28-1.55-1.22-2.23-2.85-1.86-4.7-1.15a18.89,18.89,0,0,1-2.38.62c-1.94.47-3.49.14-4.55-1.8-.37-.66-1.35-1.57-1.9-1.47-4.09.7-6.42-2.41-10-4.17,1.7-.81,3-1.46,4.25-2,1.78-.76,3.16-1.54,2.3-4A2.65,2.65,0,0,1,7.73,206a11.41,11.41,0,0,0,3.85-4.37c1.1-2.06,1.41-4.54,2.45-6.65,1.16-2.35,2.76-4.48,4.14-6.73,1.06-1.74,2.15-3.47,3.07-5.29.48-.94,1.18-2.38.81-3-.88-1.43-.08-2.41.27-3.55a9.69,9.69,0,0,0,.89-2.75c-.05-2.76-.33-5.53-.56-8.29,0-.58-.1-1.45-.46-1.66-2.57-1.47-.9-3-.06-4.38A22.21,22.21,0,0,1,25,155.56a9.84,9.84,0,0,1,2.88-2.18A3.35,3.35,0,0,0,30,150.05c0-.7,0-1.74.4-2,2.59-1.88,2.38-4.64,2.64-7.31a15.88,15.88,0,0,1,.89-5c.89-1.9.33-3.08-.87-4.35l-2.29,1c-.67-1.54-1.26-3-1.94-4.43a29.32,29.32,0,0,0-3.05-5.7c-.58-.73-2.33-.51-3.54-.74-.13,0-.23-.18,0,0-.51-1.14-.64-2.17-1.21-2.59A16.16,16.16,0,0,1,14.74,111a5.47,5.47,0,0,0-1.9-2.6,2.52,2.52,0,0,1-1-3.62c.66-1.46,1.26-3,1.88-4.43C10,98.87,10.05,98.86,9.93,95c-.07-2.09,0-4.45-.91-6.17-1.66-3.07-2.21-6.27-2.78-9.58C6,78,6,77.08,7.08,76.31a2.53,2.53,0,0,0,.81-3.56A7.3,7.3,0,0,1,7,67.42a2.6,2.6,0,0,0-1-2,2.92,2.92,0,0,1-1-2.89A51.92,51.92,0,0,0,4.54,56c0-.64-.36-1.59,0-1.89,2.06-2,2.14-4.47,2.07-7.07a3.6,3.6,0,0,1,.73-1.84c1.38-2.1,3-4.08,4.22-6.25,2.41-4.14,5.23-7.86,9.34-10.47a16.94,16.94,0,0,0,2.27-1.78,14.55,14.55,0,0,0,2.13-2.17c.89-1.23,1.62-2.59,2.45-3.87.09-.13.37-.13.61-.2.13.62.25,1.17.37,1.73a21.22,21.22,0,0,0,2.52-7.68A21.08,21.08,0,0,1,36,2.75a2.46,2.46,0,0,1,2.1-.5c2.79.62,5.54,1.41,8.64,2.23-1.71-2.91-5-2-7.26-3.52,1.3-1.49,2.67-1,3.94-.21,3.15,1.93,6.2,4,9.39,5.88s7,3.15,9.94,5.43c3.78,2.93,8.1,2.88,12.32,3.21a6.21,6.21,0,0,1,3.71,1.23,7.7,7.7,0,0,0,2.95,1.39c2.16.46,4.48.33,6.53,1.05,3.11,1.08,6,2.67,9.06,4.06l-2.74-3.18c2.51-.12,4.81-.25,6.41,1.74,1.34,1.67,2.59,3.41,4,5,2.2,2.52,4.12,5.6,6.88,7.26s4.75,4.36,7.43,6.24c2.85,2,5.36,4.62,8.39,6.51.53.34.89,1,1.44,1.22,1.54.56,3.87,3.56,3.94,5.61-2,.11-3.92.14-5.88.35-.58.07-1.11.61-1.67.94l.39.5,5.88-.39L130.44,57l.58.5,5.92-6.4,3.52,5c-4.6,1.59-2.7,6-4.8,8.35,2.37-2.61,2.07-7.32,6.85-8,1.57,1.59,3,3.74,5.05,5,3.48,2.11,6.55,4.1,8.59,8,2.34,4.53,1.81,9.3,2.73,13.92.15.77-.72,2-1.43,2.63-1.38,1.27-3,2.31-4.49,3.45l.63.84,7-5c.08-1.3.22-2.56.22-3.82,0-3.36-.16-6.72,0-10.08.07-2,3.12-3.36,4.61-2.08A12.62,12.62,0,0,1,169.77,77c.56,3.35,1.34,6.62,4.17,9.1-1.22,1.89-.56,3.71.69,5.46a18.43,18.43,0,0,1,2.14,3.15c.55,1.29,1.39,3.11.9,4-1.16,2.19-.81,4.33-.75,6.51,0,1.38-.22,2.09-1.76,2.52-2.77.76-5.43,2.45-5.94,5.29-.69,3.82-3.22,6-5.81,8.11-1.7,1.41-3.52,2.48-2.72,4.7-1.18.74-2.45,1.1-2.89,1.91-2.2,4-4.06,8.11-6.26,12.07-2.7,4.85-5.57,9.6-8.46,14.34a3.72,3.72,0,0,1-1.93,1.36c-1.33.47-6.39,6.37-6.4,7.72a2.35,2.35,0,0,0,.23.62c.87,2.49-.09,4.54-1.27,6.71a52.78,52.78,0,0,0-2.61,6.85c-2.69.77-3.63,4-4.45,6.89-1,3.5-2.27,6.64-5,9.25.29,1.6,2.35,3.4-.09,5.18.77,2.41-1.2,3.5-2.52,4.65a11.75,11.75,0,0,0-3.67,4.67c-.2.52-.37,1.22-.78,1.46A42,42,0,0,1,110,212c-3.9,1.75-7.68,3.61-9.3,8a1.7,1.7,0,0,1-.67.84c-3.71,2-6.92,1.43-9.83-1.6a2,2,0,0,0-1.29-.57,16.89,16.89,0,0,0-4,.17,2.54,2.54,0,0,1-3.11-1.46c-1.22-2.09-5.07-3.26-7.31-2.28-3.34,1.45-4.9,1.14-7.24-1.7-1-1.2-2-1.58-3.27-.68-2.93,2.08-6.35,2.19-9.69,2.23-2.65,0-5.22-.6-6.32-3.65-.48-1.34-1.53-1.33-2.39-.3a18.69,18.69,0,0,0-1.45,2.53c-2.48-1.79-4,2.27-6.59,1.09-.1-.05-.77.61-.78.95-.14,3.55-3.49,4.4-5.5,4.64-3.41.41-3.73,2.56-4.52,4.81"/></g></g></svg>