<svg xmlns="http://www.w3.org/2000/svg" viewBox="0 0 306.97 366.12"><defs><style>.cls-1{fill:#51beca;}</style></defs><g id="Calque_2" data-name="Calque 2"><g id="Calque_1-2" data-name="Calque 1"><path class="cls-1" d="M68.35,0a3.9,3.9,0,0,0,4.38,2.38c1.5-.14,3.12.8,4.65,1.35,1.92.69,3.88,2.22,5.69,2,3.88-.38,6.22,1.58,9.06,3.64,4.74,3.44,10,6.17,15,9.25A4.63,4.63,0,0,1,109,20.35c2.14,4.61,6.53,5.12,10.69,6.27,1.18.33,2.21,1.68,3,2.78,3.46,4.77,5.52,5.53,10.89,3.43,2.82-1.1,5.06-1.22,6.77,1.84a3.53,3.53,0,0,0,2.74,1.27c5.34-.16,6.31.87,5.59,6.36,4.88.46,5.88,1.37,7,6.38.84,3.77,3.13,4.76,7.09,3.7,1.55-.42,3.4.33,5.42.58a13.85,13.85,0,0,1-.51,2.8c-1.12,2.66-1.21,4.86,1.68,6.57.78.46.88,2,1.55,2.74,3.47,4.12,6.09,9.11,11.48,11.28a4.55,4.55,0,0,1,.77.37c.42,1.72.4,3.22,1.09,4.22,2.45,3.57,5.53,6.75,7.64,10.49,1.88,3.33,2.9,7.17,4.1,10.85,1.66,5.07,1.58,5.1,7.29,4.79-.1-6.22.86-13.19,6.72-15.64,4.48-1.87,10.35-7.13,15.5-1,3.28-2.12,6.27-5.51,9.61-5.89,7.11-.82,11.71-4.86,16-9.59,2.77,1,5.37,1.74,7.84,2.8,3.57,1.54,3.74,2.79,1,5.48-.69.68-1.4,1.33-2.73,2.6,2.09,1.32,3.89,2.47,6.31,4-.4.65-1.11,2.51-1.58,2.45a17.81,17.81,0,0,1-5.85-1.78c-.94-.49-1.24-2.09-2.1-2.89-2-1.91-4.17-3.21-6.31.07-.62.94-1.77,1.54-3.69,3.15l7.87,1.37c.54,2.95-1.38,4.49-3.86,5.83-2.3,1.25-4.46,2.74-6.67,4.12.1.37.2.74.31,1.1l5.94.54,1.8,4.89-14.22.65c-2.54-7.49-9.35-11.94-17-10.78-1.64.25-3.12,1.83-4.58,2.92a8.09,8.09,0,0,0-1.8,2.06c-.52.78-1.32,1.75-1.18,2.48s1.26,1.34,2,2l2.83,2.5-.68.93a5.4,5.4,0,0,0-2-.27c-1.31.37-3,.68-3.67,1.63-.48.71.18,2.56.83,3.58a25.57,25.57,0,0,0,3.62,4.11c1.62,1.62,3.32,2.46,5.1.1a4.84,4.84,0,0,1,1.91-1.67,8.16,8.16,0,0,1,2.59-.18,7.16,7.16,0,0,1-.51,2.34c-.94,1.46-2.43,2.66-3,4.22-.51,1.31-.1,3-.1,4.49l1.29.47,10.41-7.09c.68,3.3.85,6.35,2,9,1.6,3.81,4.51,2.55,7,.61,2.22,4.27,1.83,4.75-1.95,7.08-1.58,1-2.38,3.22-3,4.14-2.52-.22-4.38-.83-5.95-.4-2.07.58-3.79,2.59-6.25,1.24-.4,1-1.37,2.26-1.07,3,.48,1.22,1.78,2.12,2.74,3.15l-.54,1.23-6.26-1.39c-.12-.52-.23-1-.35-1.55a84.87,84.87,0,0,0-6.33,7c-.35.47.77,3,1.61,3.22,2.82.84,3.73,2.58,4.43,5.27,1.38,5.28,5.56,6.8,9.6,3.92.4-.28,1-.62,1.05-1,.51-6.19,6.21-4.6,9.61-6.41a2.78,2.78,0,0,1,2.06.17c3,1.26,5.86,2.63,7.69,3.47l6.9-3.1.82.83-2,7.36-3.09-1.55a3.2,3.2,0,0,0-.34,1c.3,5.2-.77,6-6,4.58-2.78-.76-2.78-.76-4.36,1.6,6.49.67,7.3,6.12,8.65,10.74.34,1.16-2,3.09-3.55,5.34.37,4.21.37,4.21,7.05,3.59,1,2.7,1.54,4.81,4.65,1,1.76-2.13,5.51-2.58,8.21.71a17.82,17.82,0,0,0-1.63,1c-1.17.89-3.15,1.77-3.23,2.77s1.45,2.49,2.47,3.58c1.59,1.72,3.34,3.3,5.4,5.3l-2.8,1.32c1.36,6.74,4.76,7.91,13.73,4.42l4.63,8.29-3,1.22v.66l4.79.69c-.75,1.77-.75,1.77-7.65,3.07,1,3.4,3.43,3.63,7.37,2.44l-3.42,5,4.93.41-.83,3.23.55.49a53.72,53.72,0,0,1,5-4.35,46.27,46.27,0,0,1,5.5-2.88l.83,1c-2.66,4.86-5.31,9.73-8.16,15a31.3,31.3,0,0,1,4.11,3.09c1.43,1.44,3.19,3.07,3.53,4.86.18,1-2.32,2.42-3.81,3.86,1.69,3.7,3.4-2,5.34-.36v8.37c-1.82,0-4.55-.59-4.94.11-1.38,2.49-1.95,5.42-2.84,8.18l1.3.66c1-.83,2-1.61,2.91-2.48,2.29-2.14,3.89-2,4.63,1a63.28,63.28,0,0,1,1.06,8.85c.21,2.13-.83,5,3.29,4.49.53-.07,1.5,2.11,2,3.35.76,1.87,1.82,3.85,1.78,5.77a9.36,9.36,0,0,1-2.12,5.49c-.82,1-3,.65-4.37,1.3-1,.45-1.58,1.56-2.35,2.38l1.34-.1,7.2,8.78c-1.26.87-2.66,1.75-4,2.75s-2.92,1.91-1.58,4.14c.32.53-.41,1.76-.8,2.6s-1.3,1.47-1.27,2.17c.21,4.79-3.22,6.76-6.78,8.85a7.64,7.64,0,0,1,.24,2.81c-.42,1.45-.91,3.4-2,4-.87.47-2.69-.72-4-1.31s-2.77-1.38-4.17-2.1c-.62,1.86-.62,1.86,5.4,11-3.22-.5-6.21-1-7.7,2.7a84.2,84.2,0,0,1-3.92,7.46l.87.5c-1.14.84-2.3,1.67-3.44,2.53-.38.29-.73,1-1,.95-3.36-.24-6.73-.46-10.05-1-.7-.11-1.16-1.53-1.78-2.3s-1.39-2.27-2.29-2.48a4.41,4.41,0,0,1-3.86-4.78c0-3.6-2.2-5.55-5.1-7.09-.65-.34-1.49-1.17-1.45-1.73s1-1.17,1.55-1.73a21.08,21.08,0,0,0,2.79-2.8c1-1.4,1.52-3,2.39-4.52,3.53-6,3.39-7.49-1.36-12.47,2.93-3.92,6.31,1.53,9.41-.47-.24-1.4-.47-2.8-.78-4.6h6.41a52.47,52.47,0,0,0,.41-7.51c-.17-2-1.17-3.56-3.93-3-1.21.24-2.67-.76-3.91-1.16-3.25,3.36-6.52,6.76-9.81,10.14-1.74,1.8-1.53,5.29-4.76,5.74a4.22,4.22,0,0,1-2.93-.63c-1.52-1.19-2.73-2.76-4.15-4.08-2.64-2.45-6.21-4.39-4-9.31l-.87-.65c-3.7,1.09-7.41,2.17-11.1,3.27-1,.3-2.08,1-3.05.93q-9.67-1-19.3-2.34a4,4,0,0,1-2.54-1.63c-1.76-2.8-3.73-2.35-6.12-.94a28.07,28.07,0,0,1-4.48,1.73,20.88,20.88,0,0,1-1.24-4.66c-.1-2.59,0-5.06-4.08-4.86-.33,1.92-.69,4-1.15,6.69L176.94,305c.12,2.2.24,4.23.35,6.22-4.11,1.05-5.65-.39-10.19-9.95-1,2.43-1.8,4.15-2.86,6.61-1.53-1-3.35-1.74-4.47-3.07-1.8-2.16-4-3.1-6.46-2.31a133.28,133.28,0,0,0-14,5.21c-1.06.47-1.58,2.53-2,4-1.06,3.39-1,7.16-4.89,9.29-1.87,1-3.25,1.48-5,.37-2-1.25-3.89-2.53-5.7-4a3.07,3.07,0,0,1-.87-2.08c-.12-3.39-1.7-4.61-5.17-3.84-2.78.61-5.93-1.06-6.6-3.62-.2-.78-.38-2.18,0-2.4,3.92-2.44,1.23-6.22,1.88-9.28.15-.69-1.29-2.45-2.12-2.52-3.78-.36-5.19-2.13-4.33-5.75,1.07-.57,2.44-.88,3.09-1.73,1.74-2.27.34-4.93-2.62-5.07-2.78-.14-5.57,0-9.11,0,2.36-5.72,4.62-11.19,7-16.89l2.18.29c.08-.09.25-.2.23-.27-1.35-4.78,3.26-5.62,5.47-7.89a6.5,6.5,0,0,1,4.85-1.44c5,.62,6.15.15,8.08-4.63.36-.89.64-1.81,1.08-3.07,6.39,2,5.49-3.43,6.56-7l1-.05,2.47,6.22,6.45-2.45c.18,2.49,1.43,4.47-1.44,6.18-1.82,1.09.14,4.3,3,5.22,1.79.56,3.44,1.62,5.25,2.07a5.26,5.26,0,0,0,3.25-.54c2.38-1.18,4.71-1.64,6.36.82,1.78,2.65,2.35,1.67,3.17-.55a4.38,4.38,0,0,1,2-2.26c.39-.18,1.38.9,2.41,1.63,2.39-1.09,2.82-6.67,7.93-4.44-.34-1.67-.54-2.67-.88-4.32l4.31,1.39.45-.42A24.39,24.39,0,0,1,174,245.2a32.32,32.32,0,0,1-2.06-5h-10c-1.88-6,.52-13.78-6.65-18.2l-2.9,1.76c-.16-2.55-.28-4.53-.4-6.58l5.63-2.52a22.72,22.72,0,0,1-1.56-3.39c-.53-2-.8-4.08-1.24-6.12-.26-1.21-.64-2.4-1-3.6-1,.38-2.09.69-3.08,1.15-2.17,1-4.26,2.79-6.48,3-3.63.27-4.57,1.56-3.54,4.85a25,25,0,0,1,.61,3.22c-4.26,3.44-7-.95-10.67-2.45.32,3.47-1.52,3.57-4,3v-6.76l-6.13,3.28c-3.32-2.58-7.1-1.64-11.08.17s-6.9.41-10-3.85A174.12,174.12,0,0,0,88,192.94c-1.29-1.42-3.86-1.7-5.89-2.39-3.42-1.17-7-2-10.26-3.47-1.38-.6-2.48-2.19-3.32-3.56-1-1.59-1-4.07-2.35-5.05-3.4-2.56-7.11-4.41-9.6-8.32-1.37-2.16-4.3-3.22-4.25-6.58,0-1-1.22-2-1.93-3-3.5-4.85-7.48-9.43-10.38-14.61-2.68-4.81-3.95-10.37-6.29-15.39-2.75-5.87-.28-10.65,2.27-15.65,4.77-9.32,3.39-16.24-4.58-23.17-2-1.75-4.47-3-6.56-4.67a7.25,7.25,0,0,1-1.57-2.79A17.76,17.76,0,0,0,12.88,73.89C10.53,73,9,69.67,7.4,67.24a46.24,46.24,0,0,1-3.6-7.13C1.1,53.79-1.77,47.63,1.37,40.38c2.87-6.64,6.05-13,10.52-18.73.78-1,1-2.45,1.55-3.64a11.17,11.17,0,0,1,7.79-6.66c3.44-.87,6.61-2.78,9.93-4.16,4.67-1.94,9.35-3.86,14.06-5.71C46.77.87,48.41.49,50,0Z"/></g></g></svg>