<svg xmlns="http://www.w3.org/2000/svg" viewBox="0 0 190.42 261.23"><defs><style>.cls-1{fill:#51beca;}</style></defs><g id="Calque_2" data-name="Calque 2"><g id="Calque_1-2" data-name="Calque 1"><path class="cls-1" d="M37.54,183.76c.69-.06,1.38-.13,2.07-.18a6.62,6.62,0,0,1,7.07,8.19c-.76,3.72-1.13,7.37,2.12,10.28.34.3.67.93,1,.9,4.32-.31,7.23,3.29,11.16,4a2.55,2.55,0,0,1,1.81,1.28c3.13,5,12.5,5.17,15.84.3.26-.38.65-.81.64-1.21-.08-5.41,1.29-10.87-3.24-15.72-2-2.13-4.21-5-4.35-8.68-.08-2.27-.53-4.76-3.65-5.47-1-.22-1.58-1.73-2.42-2.6-2-2.07-5.43-2-7-5.07-1.4-2.75-3.83-5-4.52-8.13-.58-2.61-2.95-2.58-4.58-2.62-2.87-.09-4.32-2-5.89-3.64-1.31-1.41-2.38-3-4-4.1-.52-.33-1.15-.65-.93-1.41a1.34,1.34,0,0,1,1.56-1.09c2.63.51,3.55-1.4,4.44-3.18.77-1.53,1.3-2.22,3.45-1.79a12.53,12.53,0,0,0,7-.62,1.39,1.39,0,0,0,1-1.59,2.56,2.56,0,0,0-2-2.29c-2.33-.5-4.68-1-7-1.32-2-.31-3.06-1.35-2.16-3.31,1.51-3.3.85-7.18,3.13-10.35,1.11-1.55,0-3.44-1.54-4.61A8.09,8.09,0,0,1,44,110.1c.73-1.7,2.36-1.16,3.56-1.67.84-.36,2.06-.53,1.92-1.66S48,106,47.3,106.06c-4.53.6-6.29-2.21-7.5-5.84-.38-1.17.43-1.29,1.1-1.62,4.23-2.09,6-7.94,3.47-11.73-.8-1.2-1.66-.43-2.18.38-1.48,2.34-2.64,3.32-5.28.8-2-1.89-4.67-3.91-8-1.65-1.6,1.07-3.13,0-4.05-1.53a10.25,10.25,0,0,0-4.93-4.36A3.2,3.2,0,0,1,18,78.88c-1.75-4-4.88-4.36-7.52-1-.84,1.08-1.61,1.3-2.18-.09a4.47,4.47,0,0,0-3.2-2.65C1.44,74,.92,70.94,3.49,68.05a7.9,7.9,0,0,1,4.38-3,2.5,2.5,0,0,0,1.28-.94c1.75-2.32,4.41-4.84,3.2-7.71S7.4,54.57,4.68,54.28a11.42,11.42,0,0,0-1.6.23c-1.09.05-2.64.71-3-.7s1.29-.93,2-1.31c3.24-1.71,6.13-8.79,5-12.36-.47-1.46,1-1.91,1.5-2.9s1.45-.61,2.26-.32a10.22,10.22,0,0,0,7.44-.16c1.69-.67,2.93-1.49,2.14-3.59-.24-.64,0-1.17.68-1.08,3.34.41,2.69-2.39,3.1-4.05.44-1.84-.86-2.76-2.61-3.12-.83-.17-1.88-.6-1.56-1.6s1.43-.57,2.22-.38a12.44,12.44,0,0,0,3.79.82c4.24-.22,5.5-1.59,5.38-5.86-.09-3.24,1.69-5.48,4.56-6.72,2.28-1,4.36-1.87,3.1-5-.32-.8.17-1.26.95-1,3.55,1.18,4.69-1.65,6.3-3.71.44-.56.47-1.67,1.53-1.41A2,2,0,0,1,49,1c.44.93-.41,1.35-1,1.83-2,1.69-2.53,3.32.16,4.86.39.23.93.53.6,1a1.43,1.43,0,0,1-1.18.5c-3.82-.55-6.54,1.89-9.57,3.47-.73.38-1.72.72-1.56,1.76s1.24,1.3,2.18,1.23c3.58-.26,5.35,3.76,8.93,3.74.7,0-.17,1.25-.58,1.83C45.87,22.93,46.31,24,48.28,24c2.44,0,3.33,2.59,5.51,2.95.52.09.47.82.14,1.39-1.47,2.48.18,4.4,2,5C59.16,34.62,62,37.11,65.77,37,66.91,37,67,38,67,38.89A1,1,0,0,1,65.63,40c-1.27-.21-2.49-.33-3.09,1.21a3.61,3.61,0,0,0,1,4.24,11.11,11.11,0,0,1,3.83,6.87c.51,3,4.66,4.84,8.34,4.61,2.51-.16,5.23-.09,5.42,3.69.12,2.28,3.15,3.11,5.06,1.49,2.1-1.79,2.73-4.86,5.58-6.13,1-.43.44-2-.26-2.9s-1-1.75.06-2.57,1.73.32,2.23.88c1.75,2,2.86,4.55,5.31,6,1.14.67,2.52,1.45,3.43.8,2.47-1.78,5-.63,7.53-.76a2.56,2.56,0,0,1,1.88.76c2.51,2.18,5.35,1.75,8.21.95,1.7-.48,2.76.22,3.69,1.56,1.31,1.92,2.74,3.43,4.78.68a1.41,1.41,0,0,1,1.18-.4c.63.16.69.83.54,1.34a7.34,7.34,0,0,1-.93,2.33c-.82,1.15-.64,2.5.44,2.69,2.88.53,4.82,3.68,8.12,2.81A1.65,1.65,0,0,1,140,71.22c1.17,2.81,3.41,4.44,6.05,5.66.2.09.57.31.55.36-.82,2.11.77,4.82-.35,6.26a19.73,19.73,0,0,0-2.49,5.29,6.8,6.8,0,0,1-1.67,2.56c-1.6,1.55.22,3.07,1.24,3.51,2.25,1,3,2.58,2.48,4.55s-2.22,1.43-3.81.93a3.64,3.64,0,0,0-2.59.67c-4.11,2.65-9.86,3.66-9.5,10.65.14,2.71-3.42,3.55-5.1,5.46a13.44,13.44,0,0,0-3.52,6.51c-.3,1.69-.91,2.68-2.56,3.08a7.09,7.09,0,0,0-4.44,3.46c-.87,1.42-1.32,2.74.95,3.29,1.17.29,1,.92.38,1.67-.76,1-1.49,2-2.2,3-.58.84-1.4,2.15-.84,2.74,2.62,2.78.36,8,3.21,9.32,3.36,1.51,3,5.38,6,6.5.14.05.26.2.4.21,3.39.28,5.32,1.16,3.47,5.26-.78,1.74,2.19,3.28,4.46,2.48,1.14-.4,2.54-1.69,3.42,0,.74,1.43,0,2.61-1.37,3.69-1.57,1.21-2.83,2.85-1.39,5.16.81,1.31-.07,2.22-1.32,2.58-.74.21-1.7.1-2,.86-1.3,2.85-3.88,3.61-6.56,4.54-4.08,1.42-5.09,3.95-4.75,8.76s2.17,8.26,6.71,10.1c.42.17,1,.43.66,1a1.39,1.39,0,0,1-1.18.4c-2.78-.58-5.65-.8-8.2-2.27-4.33-2.48-6.85-1.26-7.38,3.54a1.47,1.47,0,0,1-1.23,1.46c-2.62.42-3.48,2.58-4.59,4.5a2.53,2.53,0,0,0,.46,3.36c.75.76,1.66,1.47,1.71,2.65s.43,2.79-.17,3.53-1.91-.42-2.88-.78c-1.76-.66-3.19-.43-4.22,1.21-1.41,2.25-.45,4.44,1.08,5.82,2.21,2,4,3.73,3.84,7.09-.11,2.24,4.42,5.53,7.18,5.63a4,4,0,0,1,3.79,2.11c.88,1.56,2.13,2.36,4,1.36a4.74,4.74,0,0,1,2.27-.22c.89,0,2.11-.43,2.58.47s-1,1.4-1.25,2.2c-1.07,3.14-4.45,4.32-5.89,7.14-.49,1-1.33.85-2.17.35s-1.6-.93-2.42-1.35c-1.63-.84-3.44-1.53-5-.14a5.8,5.8,0,0,0-1.8,5.46c.19,1.07.38,1.76-.89,2.11s-1.66-.43-2-1.54c-.84-3.32-.86-6.78-2.59-10-1.57-2.88-3.44-3.75-6.07-1.92a23.69,23.69,0,0,1-2.44,1.3c-1.64.86-2.29,2-1.63,3.95,1.64,4.93-2.61,7.62-4.66,11.07-1.59,2.65-4.49.73-6.66.7-1.46,0-1.89-2.72-2.59-4.32-.47-1.07-.72-2.23-2.16-2.41s-1.91.7-2.49,1.67a3.62,3.62,0,0,1-4.24,1.59c-1.44-.41-1.3-2.29-1.54-3.6-.25-1.46,1.47-3.2,0-4.35a12.47,12.47,0,0,0-5-2.23c-2.25-.5-4.72,2.7-5.36,6.52a8.41,8.41,0,0,1-.29,1.59c-.25.67-1.13,1.11-1.37.46-.73-2-2.86-3.66-1.51-6.14.29-.54,1-1.2.84-1.6-1.66-5,1.85-9.52,1.3-14.41a2.83,2.83,0,0,0-2.27-2.59c-1.39-.39-2.09.45-2.73,1.55a6.77,6.77,0,0,1-10,2.11c-1.71-1.33-3.32-2.54-5.61-1.25a1.07,1.07,0,0,1-1.57-.52c-.24-.61.18-1,.63-1.36,1.68-1.17,3-2.76,5.2-3.3,4.36-1.08,7.14-4.3,9.68-7.74a5.16,5.16,0,0,0,.72-3.33,8.27,8.27,0,0,1,1.27-5.24c1-1.46.38-3.44-.86-4.65a4.32,4.32,0,0,0-4.92-.93c-1,.42-1.87,1.07-2.84,1.54s-1.91,1.31-2.77.65c-1.07-.82.31-1.57.53-2.37.44-1.59-.73-2.35-1.8-2.84-2.62-1.2-3.39-3.42-4-6a67.22,67.22,0,0,0-2.19-7c-.42-1.23-1.59-1.59-2.72-1.92-.95-.29-2.15-.42-2.07-1.76s1.27-1.66,2.37-1.75c4.21-.36,8.43-.65,12.65-1v.15"/><path class="cls-1" d="M186.69,91c-.4,1.59.22,2.42,1.49,3.3,1.67,1.16,1.44,3.45,2.23,5.18a.61.61,0,0,1-.27.55c-4.17,1-3.2,3.43-1.88,6.18.9,1.86-1.12,4.53-3.67,5.19-3.66,1-5.73,5.8-4,9.37.23.48.54.94.75,1.43.33.79.75,1.75-.11,2.32-1,.67-1.34-.59-2-1-3.45-2-4.16-5.38-5.7-8.8-2.1-4.69-4.22-10.65-11-12-1.57-.31-3.13-2.74-5.21-3.53-.66-.25-.51-1-.11-1.61a1.7,1.7,0,0,1,2.2-.8c2.31,1.3,3-.16,3.63-1.9.23-.62.65-2,1.35-.64,1.12,2.1,2.09,1,3,.13,3.44-3.27,7-6.42,9.51-10.57,2.2-3.67,3.12-3.68,5.32-.14,1.17,1.9,3.52,2.84,4.21,5.11a11.57,11.57,0,0,1,.29,2.19"/><path class="cls-1" d="M141.59,124.55c-.9-.87-2.28-2.07-1.9-3.63a5.87,5.87,0,0,0,.17-3.24c-.42-1.42.45-2.34,1.62-3s1.86.15,2.52,1c.85,1.07,1.73,2.12,2.58,3.19a2.16,2.16,0,0,1,.31,2.58,6.66,6.66,0,0,1-5.3,3.09"/><path class="cls-1" d="M142.48,184.92c-.11,1-.26,2.37-1.45,2.23a2.72,2.72,0,0,1-2.39-2.9c.05-1.06.05-2.66,1.72-2.46s2.07,1.62,2.12,3.13"/><path class="cls-1" d="M56.55,19.43c-1-.1-2-.23-2.95-.31-.61-.05-1.32.08-1.45-.76a1.44,1.44,0,0,1,.88-1.5c2-.88,3.64.34,4.87,1.5.73.69-.31,1.4-1.35,1.07"/></g></g></svg>