<svg xmlns="http://www.w3.org/2000/svg" viewBox="0 0 265.94 181.05"><defs><style>.cls-1{fill:#51beca;}</style></defs><g id="Calque_2" data-name="Calque 2"><g id="Calque_1-2" data-name="Calque 1"><path class="cls-1" d="M1.38,0l19,18.37c1.35-6.34,4.11-4.78,7.2-3.81,7.79,2.43,12.71,8.57,18.5,13.61,5.32,4.63,10.14,10,16,13.83,5.4,3.54,11.93,5.32,17.82,8.18,1.64.79,3.73,2.51,4,4,.56,3.88,2.69,5.71,6,7.15,1.33.59,3.27,2.4,3.11,3.36-1,6,2.87,8.36,7.22,10.47,3,1.43,6.12,2.34,6.24,6.76,0,1.19,2.71,2.43,4.31,3.43,2.73,1.72,5.56,3.3,8.37,4.89,2.23,1.26,4.53,2.38,6.72,3.7,4.11,2.5,8.17,5.09,12.23,7.67,6.57,4.15,13.4,7.94,19.57,12.61,3.33,2.52,5,7.17,8.35,9.75,5.75,4.5,12.18,8.12,18.29,12.16,1.88,1.25,4,2.38,5.36,4.1,2.39,3.1,4.82,6.41,6.14,10,.7,1.92-.45,4.94-1.62,7-1,1.73-3.21,2.75-5.15,4.3l-3.43-4.18c-1.2,3.24-2.21,6-3.44,9.26-2.88-3.93-4.6-7.21-7.18-9.53-2.8-2.51-6.32-4.3-9.71-6-.81-.41-2.38.59-3.57,1-1.38.52-2.73,1.14-4.09,1.71-.29-1.63-.62-3.26-.87-4.89a12,12,0,0,1,.13-2c-8.4,3.29-11.89-5.67-19.12-7,4.36-5.66.84-8.58-5.13-11.64.41,2.73.72,4.78,1.26,8.35-2.06-2.25-3.38-3.86-4.88-5.29a69.9,69.9,0,0,0-6.49-5.69c-1.73-1.3-4.33-1.73-5.58-3.31-3.54-4.46-8.67-5.69-13.46-7.75-2.2-.94-4.06-2.66-6.24-3.69-2.6-1.23-5.47-1.89-8-3.16a21.43,21.43,0,0,1-5.73-4c-3.31-3.35-6.3-7-9.44-10.52a1.41,1.41,0,0,0-.82-.53C61.5,92.44,60,82.22,55.46,75,54.89,74,54,72.85,53,72.68c-4.37-.8-5.86-4.1-7.54-7.56a8.82,8.82,0,0,0-3.67-3.69c-5.92-3.1-11.4-5.82-13.48-13.49-1.22-4.47-6-8-9.25-11.89-3.45-4-8-7.41-5.51-13.87.24-.62-1.65-2.46-2.88-3.14s-3.08-.26-4.3-.95c-1.76-1-4.08-2.23-1.38-4.86,2.32-2.26,2.3-4.14-.7-6.32C2.38,5.49,1.41,2.73,0,.57Z"/><path class="cls-1" d="M223.05,69.59A46,46,0,0,0,221,75c-.83,3.57-3.54,4.78-5.95,2.14-2.84-3.12-6.59-3.89-10-5.64-3.9-2-6.5-6.51-9.07-9.29l9.3-7.51-7.72-6.26c1.39-1.91,9.71-5,12-3.9,7.25,3.63,2.74,9.86,3.26,13.92Z"/><path class="cls-1" d="M255.34,91.38c1.63,3.56,3.57,6.83,8.51,4.88a2.68,2.68,0,0,1,2.07.73c-.15,3.82.54,8.13-1,11.31-1.76,3.56-6.4,2.08-10.42.87-7.4-2.23-6.85-8.33-8.45-13.53-.79-2.55-.42-4.23,3-3.81C250.86,92.05,252.79,91.59,255.34,91.38Z"/><path class="cls-1" d="M229.44,179.37c-.3.22-1.6,1.88-2.32,1.66-3-.93-7.13-1.23-6.55-5.84.18-1.41,2.2-3.76,3.23-3.68C227.44,171.77,229.91,173.85,229.44,179.37Z"/><path class="cls-1" d="M163.14,46c1.28-3.25,2.5-6.35,4.2-10.63.71,2.43,2,4.42,1.64,6.08C168.41,44.29,166.55,46.5,163.14,46Z"/><path class="cls-1" d="M173.5,27.72c-5.55,4.73-5.7-2.48-8.91-1.43l.66-1.74Z"/><path class="cls-1" d="M42.1,72.59q3.54,4.06,7.07,8.12L48,81.82l-7.14-7.93Z"/></g></g></svg>