<svg xmlns="http://www.w3.org/2000/svg" viewBox="0 0 287.23 154.23"><defs><style>.cls-1{fill:#51beca;}</style></defs><g id="Calque_2" data-name="Calque 2"><g id="Calque_1-2" data-name="Calque 1"><path class="cls-1" d="M274.68,103.17c1.13,1.42,1.85,2.85,3,3.69,10.87,8,10.47,19.11,8.34,30.47-.6,3.17-3,6-4.63,9-.31.57-.94,1-1.28,1.51-4.31,7-5.14,7.43-13.43,5.29-7.64-2-15.83-3-22.67-6.54-6.66-3.46-12.13-9.4-17.66-14.73-1.24-1.2,0-4.67-.87-6.61-3.65-7.79-7.7-15.38-12-23.76l2.09-2.26-1-1.39c-1.43,1-3.91,1.86-4.1,3.06-1.12,7-6.74,7.1-11.62,7.53-3.52.31-6.92-.22-9.49,3-.51.65-1.79.78-2.75,1-6.44,1.23-12.85,2.74-19.34,3.45-2.56.28-5.37-1.13-8-2.05-2-.7-3.66-2.18-5.64-2.74-7.48-2.11-15.11-3.71-22.51-6.07-4.77-1.52-8.6-4.1-9.5-10.16C120.1,83.85,118.08,73,112,63.24c-2.12-3.44-1.6-8.53-2.18-12.88-.39-3-.32-6-.91-8.86-1.66-8.2,2.38-14,10.74-15.06,1.6-.21,3.15-.7,5.54-1.25-3.8-3.28-2.18-4.87,1-5.4,4.21-.7,8.53-1.62,12.73-1.33,6.1.42,10.14-2.17,13.37-6.84.74-1.07,1.4-2.19,1.71-2.69l31.55,6.77a3.59,3.59,0,0,1,1.42.44c6.56,5.06,13.45,9.33,22.05,9.86a3,3,0,0,1,1.62,1.11c6.1,6.91,12.09,14,12.67,23.73.22,3.64-1.11,7.37-1.63,11.07-.41,2.9-1.09,5.86-.9,8.74.46,6.84,1.29,13.66,2.14,20.47.17,1.39.75,3.59,1.65,3.89,5.65,1.86,10.63,6.29,17.37,4.22,4.35-1.34,8.22-.25,12.68,1.79C260.58,103.71,267.26,107.7,274.68,103.17Z"/><path class="cls-1" d="M23.2,15.35c.17-4.85-1.68-10.41,4.16-11.3,2.31-.36,5.16,2.82,7.47,4.22C35.08-.18,44,3,49.19.55c2.79-1.29,3-.75,9,6.54L51.07,17.55c-.09.13-.29.32-.26.4C55.42,27.41,44.53,31,43,38.48s-8.63,7.9-14.58,5.06c-4.81-2.3-8.53-6.88-12.75-10.42-2.93-2.45-6.56-4.39-8.68-7.4A62.8,62.8,0,0,1,.08,11.86c-.45-1.17,1.09-4,2.45-4.79,6-3.24,15.72.21,18.94,6.26A16.85,16.85,0,0,0,23.2,15.35Z"/></g></g></svg>