<svg xmlns="http://www.w3.org/2000/svg" viewBox="0 0 215.06 188.87"><defs><style>.cls-1{fill:#51beca;}</style></defs><g id="Calque_2" data-name="Calque 2"><g id="Calque_1-2" data-name="Calque 1"><path class="cls-1" d="M186.41,84.38c2.17-1.11,3.93-2.76,5.2-2.44s2,2.63,3,4.07c1.23,1.82,2.51,3.26,5.14,3.11,1.12-.07,2.33,1.27,3.48,2a46.43,46.43,0,0,0,5.54,3.51,5.19,5.19,0,0,1,3.4,3.67c.81,3.24,1.89,6.4,2.71,9.64.47,1.88.31,3.55-1.73,4.8-.83.51-1.3,2.16-1.33,3.31a7.18,7.18,0,0,1-2,5.21,11,11,0,0,0-2.94,5.56c-.76,5.85-1.08,11.77-1.41,17.68-.16,2.87,0,5.77.12,8.65.15,4.45.28,8.91.59,13.36a8.49,8.49,0,0,1-3.08,7.67c-1.64,1.37-3.22,2.82-4.9,4.13-.72.56-1.83,1.39-2.45,1.18-4.7-1.65-8.41,2.27-12.84,2.1a9.25,9.25,0,0,0-4.31.89,18.31,18.31,0,0,1-13,1.71,2.58,2.58,0,0,0-3.22,1.29c-.59.9-2.26,1.17-3.51,1.5-.76.2-1.93-.38-2.41,0-2.9,2.38-5.69,2.47-8.87.46-.78-.49-2.44-.15-3.43.34-3.06,1.53-5.78,1-8.37-.93s-5.16-4-8.83-2.12c-.82.41-2.4-.89-3.41-.61-4.31,1.19-7.18-2.1-10.76-3s-6.94-3.07-10.36-3.63c-4.5-.73-8.39-2.8-12.67-3.83-2.24-.53-4.12-1.1-5.4-3.4a5.22,5.22,0,0,0-3.93-2c-5.62,0-9.47-2.32-12-7.42a9.92,9.92,0,0,0-7.16-5.67,7.17,7.17,0,0,1-2.15-1.25c-2.35-1.43-4.7-2.31-7.63-1.72-4.48.9-9.43-3.27-10.62-7.64-.55-2-2.59-3.85-4.33-5.32-2.12-1.79-4.74-3-6.93-4.7a10.51,10.51,0,0,1-2.83-3.69,63.16,63.16,0,0,1-3-7.52,6.54,6.54,0,0,1,.16-2.65c.47-3.75,1.17-7.48,1.37-11.25.12-2.31-1.16-4.13-3.34-5.41a4.69,4.69,0,0,1-2.13-3.09,11.69,11.69,0,0,0-4.25-8.4c-1-.83-1.36-2.33-2.13-3.44a7.87,7.87,0,0,0-1.82-1.91C8.07,84.59,4.48,82,2.49,78c-.58-1.21-1.31-2.77-1-3.92A15.71,15.71,0,0,0,.27,63.17,3,3,0,0,1,0,61.54c.67-3.62,6.34-7.62,10.12-8.06,2.35-.27,4.68-1.65,6.76-2.94,4.55-2.81,6.75-11.07,4.36-15.85a5.07,5.07,0,0,1-.05-5.21c.77-1.46.66-3.41.8-5.16.32-4,2-5,5.78-3.93,4.93,1.45,9.77.68,14.47-1.18.25-.1.62-.25.68-.45,1.32-4.44,5.88-5.62,8.72-8.53A38.3,38.3,0,0,1,70.29.06,3.4,3.4,0,0,1,72.2.27,8.77,8.77,0,0,0,80,.23c.8-.4,2.51.26,3.42.94,4,3,8.33,4,13.09,2.2,1.89-.73,3.41-.27,5.29.3,5.42,1.65,10.57,5.47,16.74,2.81.59-.25,1.42-.56,1.89-.34,4.88,2.36,11,.3,15.43,4.4a7,7,0,0,0,4.48,1.94c6.86-.35,11.91,3,16.59,7.35,3.21,3,6.5,5.88,7.36,10.55.19,1,1.23,1.85,1.68,2.86a16.41,16.41,0,0,1,1.54,4.3c.61,4.46.85,9,1.56,13.43.18,1.14,1.52,2.11,2.39,3.11,1.66,1.9,3.69,3.57,5,5.69a115.82,115.82,0,0,1,7,13c1.21,2.69,1.53,5.78,2.26,8.68.23.92.48,1.82.76,2.88"/></g></g></svg>