<svg xmlns="http://www.w3.org/2000/svg" viewBox="0 0 223.59 194.02"><defs><style>.cls-1{fill:#51beca;}</style></defs><g id="Calque_2" data-name="Calque 2"><g id="Calque_1-2" data-name="Calque 1"><path class="cls-1" d="M218.88,66.89c-7.57,0,10.38,5.16,2.81,5.07-1.95,0-3.1.57-3.52,2.54a6.3,6.3,0,0,1-5.93,5.29c-2.21.27-2.77,1.08-2.54,3.33a85.86,85.86,0,0,1,.63,9l-.75-1.22c-.44.31-.88.62-1.6,1.15-.56-1.28-1-2.38-1.52-3.46-.69-1.45-1.51-2.84-2.11-4.33a4.69,4.69,0,0,1-.36-2.66,30.75,30.75,0,0,1,1.71-3.93c.27-.64.46-1.31.89-2.54-4.76,3.48-9,6.54-13.17,9.67-.38.28-.47,1-.8,1.67,4.08-1.24,6.6,1.21,9.09,3.05,1.72,1.27,2.95,3.13,5.36,3.33a2.73,2.73,0,0,1,1.85.77c1.6,2.17,3.4,1.65,5.36.68a3.23,3.23,0,0,1,1.94-.51c1.31.37,3,.72,3.64,1.68a3.81,3.81,0,0,1-.23,3.68c-3.1,3-2.59,5.66.13,8.57a8.53,8.53,0,0,1,1.59,3.7c.85,3.33-1.18,5.42-4.55,4.81-1.81-.33-4.83,2.53-4.44,4.54a26.8,26.8,0,0,0,2.2,6.93c1.41,2.8.56,5.29-2.46,6.47-1.45.57-2.58,2-4,2.48-3.08,1.1-3.59,4.21-5.39,6.28-.95,1.1-1.46,2-1,3.56a3.52,3.52,0,0,0,3.18,2.83,22.07,22.07,0,0,1,2.61.74c-.49.76-.94,1.55-1.47,2.27q-2.67,3.61-5.41,7.21a2.85,2.85,0,0,1-.88.85c-3.58,1.77-3.28,4.94-2.91,8.1s-.46,4.33-3.46,5.07a3.07,3.07,0,0,0-1.58,1.3,21.18,21.18,0,0,1-9.83,8.52,3.24,3.24,0,0,0-1.17,1.39c-.68,1.21-1,2.8-2,3.64-2.6,2.26-5.32,4.45-8.77,5.39-2.47.68-3.95-.44-4.06-3a7.85,7.85,0,0,1,1.8-5.9,3.23,3.23,0,0,0,.53-4,19.65,19.65,0,0,1-1.06-2.66,2.22,2.22,0,0,1,1.26-3c1-.43,1.85-.93,1.35-2a2.51,2.51,0,0,0-1.84-1.13c-1.5-.11-1.14,1.17-1.22,2.06,0,.31-.06.63-.15,1.54a6.86,6.86,0,0,1-.24-1.2c.64-5.21-1.58-7.52-7.49-8.85-3.68-.83-7.56-.84-11.09,1.37-1.88,1.17-2.13,2.56-1.57,4.5a33.45,33.45,0,0,1,.91,4.56,4.84,4.84,0,0,1-2.59,5,4,4,0,0,1-3.18.14c-.54-.23-.93-1.72-.78-2.52,1-5.15,0-6.34-5.32-6.38a5,5,0,0,0-4.53,2.15c-1.78,2.48-3,2.5-5.1.3-1.74-1.81-3.32-3.77-5-5.65a7.93,7.93,0,0,0-.91-.84c-1.89,1.56-3,2.52-4.64,4.06-.43.42-.25.39-.89.74-.2,1.62-.14-.3-.55.56,0-.93.06-.13-.36.7-.22.43-.39,2.45-.12-.45.38-4-.39-3.08-1.28-6.87a5.39,5.39,0,0,0-2.86-3.4,30.42,30.42,0,0,0-7.95-1.4c-.93-.07-2.06.86-2.89,1.58-2,1.74-3.76,1.4-4.32-1.22-.61-2.83-2-4.44-5-4.7a3.89,3.89,0,0,1-2.55-2.21c-.63-1.59.22-3,1.63-4a4.56,4.56,0,0,0,1.21-6.66,2.93,2.93,0,0,0-2.12-1c-2.53,0-3.48-1.13-2.81-3.46a2.21,2.21,0,0,0-.49-1.95c-.4-.31-1.34-.05-2,.16-.38.12-.64.61-1.11,1.1L80,138.44l-7.57-1.15c-2-.29-3.89-1.11-5.64,1-1.18,1.43-3.65,1.63-4.24,3.85a4.62,4.62,0,0,0-.4,2.15c.6,2-.81,3-2.06,3.43-.86.31-2.37-.3-3.21-1a25.34,25.34,0,0,1-4.07-4.27c-.43-.55-.3-1.61-.26-2.44a23.49,23.49,0,0,0,.32-3.61c-.08-.69-.88-1.31-1.36-2l-.53.43.63.67-.16.34L47.27,134l0,.4c-.88-.1-1.94.08-2.61-.34-2-1.24-3.42-2.85-2.77-5.57.39-1.62-.31-2.56-2.17-3a10.45,10.45,0,0,1-4.6-2.22,8.5,8.5,0,0,0-5.38-2.58,3.25,3.25,0,0,1-3.13-2.2,3.58,3.58,0,0,0-3.82-2.4,9.29,9.29,0,0,1-2.95-1,11.79,11.79,0,0,1,.95-2.53,2.06,2.06,0,0,0-.37-3A28.15,28.15,0,0,0,9.9,103c-2.66-.84-5.33-1.68-7.93-2.7C1.15,100,0,99.07,0,98.41s.89-1.72,1.63-2.31c2-1.6,4.22-2.94,6.17-4.59,1.44-1.22,1.68-2.74.57-4.56C6.89,84.53,7.6,83,10,81.61a21,21,0,0,1,12.62-2.5,15.86,15.86,0,0,1,7.62,3.52c3.22,2.53,6.79,3.31,10.63,3.65a18,18,0,0,0,4.26.21,4.46,4.46,0,0,0,2.94-1.65,11.53,11.53,0,0,1,6.8-5.51,4.88,4.88,0,0,0,2-1.83c1.22-1.68,2.4-3.42,4.55-3.87.93-.19,2.55-.11,2.84.41a3.46,3.46,0,0,1-.1,3.12c-1,1.32-2,2.28-.83,4,.3.46-.1,1.59-.49,2.24a10.09,10.09,0,0,1-2.19,2.67c-1.72,1.42-1.79,3-.25,4.31a74,74,0,0,0,6.62,4.9c1.28.88,2.73,1.52,4,2.39,4.46,3,9.5,3.12,14.57,3,.88,0,1.77-1,2.57-1.59s1.28-1.42,2.06-1.9c4.77-2.94,9.36-6,12.75-10.67,1.68-2.29,3.9-4.2,5.51-6.53,1.1-1.58.89-5.36,1.07-8.51.16-.16-2.64-3.1-2.66-5.32a6.07,6.07,0,0,0-.92-3,2,2,0,0,1,.42-3,59.22,59.22,0,0,1,5.08-3.74c1.68-1.05,2-2.48,2-4.33m.44.93.67.16a7.12,7.12,0,0,0,.84-2.25,3,3,0,0,1,3-3.26c2.88,0,3.39-1.92,3.45-3.79.08-2.59.59-4.48,3.33-5.31.39-.12.73-1.4.6-2-.62-3.23,1.11-4.47,4.46-4.9a2.72,2.72,0,0,1,2.11,1.2c1.85,3.31,4.43,4.68,8.17,3.66a5.68,5.68,0,0,1,1.43,0,8.59,8.59,0,0,0,7.21-3.14c1.89-2.36,4.29-4.39,4.47-7.73a7.49,7.49,0,0,0,.16-1.8,5.06,5.06,0,0,1,1.17-5.1,3.37,3.37,0,0,0,.24-2.65c-1.11-4.52,1.86-8.26,6.54-8a3.32,3.32,0,0,1,1.38.71c.34.22.65.74.94.72,1.85-.12,3.16.47,3.76,2.34a1,1,0,0,0,.84.44c1.94-.53,2.82.8,3.82,2a3.72,3.72,0,0,0,1.56,1.27,3.06,3.06,0,0,0,2.25,0c.4-.24.45-1.33.38-2a7.1,7.1,0,0,0-.75-1.88c-1-2.18-1.07-4.23.89-6,.1-.09.24-.19.26-.31,1.15-5.35,6.09-3.71,9.4-5a1.35,1.35,0,0,1,1.24.44c1,1.56,2.32,1.31,3.79.92C193.77,1,195.88.46,198,.09a6.31,6.31,0,0,1,2.8.16c2.13.64,4.2,1.49,6.32,2.19,1.37.45,2,1,1,2.49a8.73,8.73,0,0,0-.63,2.86c0,.13.1.29.06.4-1.27,3.25.61,6.32.53,9.5A2.56,2.56,0,0,0,210,20.44a8.91,8.91,0,0,1,2.54,2.17,1.05,1.05,0,0,1,.24.93c-1.2,1.86-2.24,3.93-3.81,5.43-.85.8-2.64.65-4,.84-1.55.22-3.13.21-4.65.54-.55.11-1.46,1.09-1.36,1.35.89,2.32-.08,5.46,3.2,6.8a2.58,2.58,0,0,1,1.17,3.7c-1.88,4-.61,7.65,1.31,11.09,1.71,3.08,3.64,6.07,6.8,8,1.12.69,1.76,2.24,2.91,2.78a24.43,24.43,0,0,0,5.81,1.69c1.42.26,2,.68,1.33,2.12-.5,1-.91,2.12-1.51,3.52m-37.72,79.21c-.41.81-1.37,2.09-1.14,2.37a16,16,0,0,0,3.1,2.31l.4-.52-.22-1C185.05,151.46,184.45,150.57,182.27,150.64ZM179,120.35c-.41.82-1.36,2.1-1.13,2.37A15.41,15.41,0,0,0,181,125l.39-.51-.22-1C181.77,121.16,181.17,120.27,179,120.35ZM130.54,47.79,124,48.92C126.22,51.35,129.54,50.81,130.54,47.79ZM169.9,90.12l-2.31-2.24c-.59.64-1.6,1.25-1.66,1.93a2.44,2.44,0,0,0,1.54,1.84C168,91.78,168.79,90.86,169.9,90.12Zm-80,47-.69.27,1,3.58c.71-.26,1.84-.32,2-.8C93.4,137.77,90.41,138.46,89.91,137.16ZM186.79,172l-2.42,1,1.24,2.83-.53.44C187.28,175.83,187.65,175,186.79,172ZM114.14,64c.06-1.08.11-1.67.13-2.27.06-1.53-1.48-2.65-2.13-1.6s-.45,2.28-.63,3.45L112,64C112.62,62.38,113.3,62.83,114.14,64ZM46,126.48a13,13,0,0,0-2.07,1.27c-.43.39-1,1.31-.92,1.43a3.54,3.54,0,0,0,1.81,1.18c.3.06,1-.74,1.12-1.25A11.12,11.12,0,0,0,46,126.48Zm166.21-24.36-.71-.29c-1,.69-2.93.63-2.36,2.6.13.45,1.09.66,1.67,1C211.27,104.31,211.74,103.21,212.21,102.12Zm-14.6,3a13.44,13.44,0,0,0,2-1.62,2,2,0,0,0,.39-1.57,1.47,1.47,0,0,0-1.28-.66,1.82,1.82,0,0,0-1.11,1.14A13.29,13.29,0,0,0,197.61,105.13Zm-16.46,41.55a10.62,10.62,0,0,0,2.35-1.36c1.52-1.66.34-2.45-1.13-2.14C181.81,143.29,181.62,145.23,181.15,146.68Zm2.68-10.61-.86.17a19.5,19.5,0,0,0,1.28,3.32,2.3,2.3,0,0,0,1.91-.24,13.78,13.78,0,0,0,.74-3.18l-.68-.07a8.33,8.33,0,0,1-.19,2,5.16,5.16,0,0,1-1,1.33,5.54,5.54,0,0,1-1-1.32A9.05,9.05,0,0,1,183.83,136.07Zm-9.49,35.15-.5,0a9.39,9.39,0,0,0,.08,2.71c.13.46,1,.69,1.55,1,.09-.51.38-1.1.22-1.52A14.33,14.33,0,0,0,174.34,171.22Zm-60.56-25.79v3.33l1-1.53,1.17,1c0-1-.11-2.2-.16-3.17Zm74.4-29,.44,0a10.87,10.87,0,0,0,1.44-1.91,2.25,2.25,0,0,0-.19-1.52c-.07-.17-.74-.35-.85-.24a2.43,2.43,0,0,0-.8,1.25A14.4,14.4,0,0,0,188.18,116.4Zm23.66-44.91.14-.57-5.81-1.73A6,6,0,0,0,211.84,71.49Zm-11,81.64.23-.77-1.84-.63a11.11,11.11,0,0,0-.59,2.3c0,.2.78.47,1.2.7l.12-.22-.78-.83ZM115.56,63.4l.12.67c.72-.15,2-.2,2-.48a8.85,8.85,0,0,0-.38-2.82Zm81.57,75.7,1.45-1-.08-.57a5.84,5.84,0,0,0-1.86,0c-.28.07-.65.92-.51,1.14a8.7,8.7,0,0,0,1.45,1.53l.35-.35Zm.42,7.37,1.44-1-.09-.58a6.08,6.08,0,0,0-1.85,0,1.3,1.3,0,0,0-.52,1.15,8.77,8.77,0,0,0,1.46,1.53l.35-.37Zm-148-17.78v-.54a5.13,5.13,0,0,0-1.84-.16,1.47,1.47,0,0,0-.57,1.29,6.36,6.36,0,0,0,1.52,1.39l.27-.35-.77-.64Zm128.81,43.74-.62.23a9.44,9.44,0,0,0,1,2.16,1.6,1.6,0,0,0,1.43,0,9.87,9.87,0,0,0,.58-2.26l-.5-.11-.91,2.52ZM53.75,137.2l.52.12L55.71,135l.91,2.39.53-.17a6.86,6.86,0,0,0-.86-2.09,1.65,1.65,0,0,0-1.61-.06A7.57,7.57,0,0,0,53.75,137.2Zm154.07-32.27.38-.09a8.59,8.59,0,0,0-.87-2.1,1.47,1.47,0,0,0-1.43-.1,6.91,6.91,0,0,0-.76,2l.24,0,1.06-1.55Zm2.12,8.12-.4,1,2.42.9.37-.92Zm-28.79-10.67c.44,1.53.71,2.52,1.08,3.85l1.58-3.33-.29-.17L182.46,104Z"/><path class="cls-1" d="M130.54,47.79c-1,3-4.32,3.56-6.54,1.13Z"/><path class="cls-1" d="M169.9,90.12c-1.11.74-1.9,1.66-2.43,1.53a2.44,2.44,0,0,1-1.54-1.84c.06-.68,1.07-1.29,1.66-1.93Z"/><path class="cls-1" d="M89.91,137.16c.5,1.3,3.49.61,2.4,3.05-.21.48-1.34.54-2,.8l-1-3.58Z"/><path class="cls-1" d="M186.79,172c.86,3,.49,3.85-1.71,4.3l.53-.44L184.37,173Z"/><path class="cls-1" d="M179,120.35c2.18-.08,2.78.81,2.14,3.19l-2.4-.19C178.81,122.35,178.9,121.35,179,120.35Z"/><path class="cls-1" d="M182.27,150.64c2.18-.07,2.78.82,2.14,3.18l-2.41-.19Z"/><path class="cls-1" d="M114.14,64c-.84-1.21-1.52-1.66-2.16,0l-.47-.38c.18-1.17.06-2.52.63-3.45s2.19.07,2.13,1.6C114.25,62.37,114.2,63,114.14,64Z"/><path class="cls-1" d="M46,126.48a11.12,11.12,0,0,1-.06,2.63c-.13.51-.82,1.31-1.12,1.25A3.54,3.54,0,0,1,43,129.18c-.11-.12.49-1,.92-1.43A13,13,0,0,1,46,126.48Z"/><path class="cls-1" d="M212.21,102.12c-.47,1.09-.94,2.19-1.4,3.29-.58-.32-1.54-.53-1.67-1-.57-2,1.36-1.91,2.36-2.6Z"/><path class="cls-1" d="M197.61,105.13a13.29,13.29,0,0,1,0-2.71,1.82,1.82,0,0,1,1.11-1.14,1.47,1.47,0,0,1,1.28.66,2,2,0,0,1-.39,1.57A13.44,13.44,0,0,1,197.61,105.13Z"/><path class="cls-1" d="M181.15,146.68c.47-1.45.66-3.39,1.22-3.5,1.47-.31,2.65.48,1.13,2.14A10.62,10.62,0,0,1,181.15,146.68Z"/><path class="cls-1" d="M183.83,136.07a9.05,9.05,0,0,0,.2,2,5.54,5.54,0,0,0,1,1.32,5.16,5.16,0,0,0,1-1.33,8.33,8.33,0,0,0,.19-2l.68.07a13.78,13.78,0,0,1-.74,3.18,2.3,2.3,0,0,1-1.91.24,19.5,19.5,0,0,1-1.28-3.32Z"/><path class="cls-1" d="M174.34,171.22a14.33,14.33,0,0,1,1.35,2.24c.16.42-.13,1-.22,1.52-.54-.33-1.42-.56-1.55-1a9.39,9.39,0,0,1-.08-2.71Z"/><path class="cls-1" d="M113.78,145.43l2.06-.34c0,1,.11,2.14.16,3.17l-1.17-1-1,1.53Z"/><path class="cls-1" d="M188.18,116.4a14.4,14.4,0,0,1,0-2.37,2.43,2.43,0,0,1,.8-1.25c.11-.11.78.07.85.24a2.25,2.25,0,0,1,.19,1.52,10.87,10.87,0,0,1-1.44,1.91Z"/><path class="cls-1" d="M211.84,71.49a6,6,0,0,1-5.67-2.3L212,70.92Z"/><path class="cls-1" d="M200.87,153.13l-1.66.55.78.83-.12.22c-.42-.23-1.22-.5-1.2-.7a11.11,11.11,0,0,1,.59-2.3l1.84.63Z"/><path class="cls-1" d="M115.56,63.4l1.79-2.63a8.85,8.85,0,0,1,.38,2.82c0,.28-1.33.33-2,.48Z"/><path class="cls-1" d="M197.13,139.1l.8.67-.35.35a8.7,8.7,0,0,1-1.45-1.53c-.14-.22.23-1.07.51-1.14a5.84,5.84,0,0,1,1.86,0l.08.57Z"/><path class="cls-1" d="M197.55,146.47l.79.65-.35.37a8.77,8.77,0,0,1-1.46-1.53,1.3,1.3,0,0,1,.52-1.15,6.08,6.08,0,0,1,1.85,0l.09.58Z"/><path class="cls-1" d="M49.56,128.69l-1.4,1,.77.64-.27.35a6.36,6.36,0,0,1-1.52-1.39,1.47,1.47,0,0,1,.57-1.29,5.13,5.13,0,0,1,1.84.16Z"/><path class="cls-1" d="M178.37,172.43l1,2.53.91-2.52.5.11a9.87,9.87,0,0,1-.58,2.26,1.6,1.6,0,0,1-1.43,0,9.44,9.44,0,0,1-1-2.16Z"/><path class="cls-1" d="M53.75,137.2a7.57,7.57,0,0,1,.93-2.17,1.65,1.65,0,0,1,1.61.06,6.86,6.86,0,0,1,.86,2.09l-.53.17L55.71,135l-1.44,2.36Z"/><path class="cls-1" d="M207.82,104.93l-1.38-1.83-1.06,1.55-.24,0a6.91,6.91,0,0,1,.76-2,1.47,1.47,0,0,1,1.43.1,8.59,8.59,0,0,1,.87,2.1Z"/><path class="cls-1" d="M209.94,113.05l2.39,1-.37.92-2.42-.9Z"/><path class="cls-1" d="M181.15,102.38l1.31,1.6,1.06-1.25.29.17-1.58,3.33C181.86,104.9,181.59,103.91,181.15,102.38Z"/><path class="cls-1" d="M179,120.35c-.09,1-.18,2-.26,3l2.4.19c.08.32.15.64.22,1L181,125a15.41,15.41,0,0,1-3.1-2.3C177.63,122.45,178.58,121.17,179,120.35Z"/><path class="cls-1" d="M182.27,150.64l-.27,3,2.41.19c.07.33.15.65.22,1l-.4.52a16,16,0,0,1-3.1-2.31C180.9,152.73,181.86,151.45,182.27,150.64Z"/><path class="cls-1" d="M110.86,164.94s1.38,10.19,2.21,10.42,6-6.77,6.7-7.14S110.86,164.94,110.86,164.94Z"/><polygon class="cls-1" points="97.01 136.1 93.98 143.11 88.54 142.57 85.64 137.38 85.64 134.85 97.01 136.1"/><polygon class="cls-1" points="119.32 142.57 110.86 144.02 110.86 148.76 114.3 150.64 118.29 148.76 119.32 142.57"/><polygon class="cls-1" points="176.81 101.27 212.33 99.05 214.04 104.3 214.53 110.29 213.2 115.49 209.54 120.35 205.14 128.43 201.95 137.87 200.09 144.02 200.09 148.76 203.16 151.73 201.1 155.99 194.46 159.74 180.74 159.74 175.74 151.16 173.78 129.88 176.81 101.27"/><polygon class="cls-1" points="189.14 170.15 172.57 169.41 172.57 176.28 176.81 176.91 187.22 176.91 189.14 170.15"/><polygon class="cls-1" points="205.14 65.07 213.08 69.19 213.08 73.17 206.17 73.17 205.14 65.07"/><polygon class="cls-1" points="137.03 46.21 124 47.79 118.77 52.02 112.89 58.54 109.7 60.77 110.55 65.07 115.02 67.13 120.46 64.08 137.03 46.21"/><polygon class="cls-1" points="50.97 126.48 44.52 124.13 41.85 128.51 42.99 131.3 47.11 132.57 50.97 131.75 50.97 126.48"/><path class="cls-1" d="M57.86,133.84l-6.34.67-2-.33,1.9,1.77s3.23,3.6,3.23,4.32,3.81-.63,3.81-.63Z"/><path class="cls-1" d="M165.2,168.7s1,6.92,2.05,9.58,8.22-3.3,8.22-3.3Z"/></g></g></svg>