<svg xmlns="http://www.w3.org/2000/svg" viewBox="0 0 1078 606"><defs><style>.cls-1{fill:#f2f2f2;}</style></defs><g id="Calque_2" data-name="Calque 2"><g id="Calque_1-2" data-name="Calque 1"><path class="cls-1" d="M1078,202v6.5c-6.07,5.82-12.18,11.58-18.19,17.46q-16.33,16-32.58,32c-.48.47-1,.87-1.49,1.34q-11.5,11.09-23,22.17c-1.05,1-1.13,1.85-.06,2.94,2.49,2.56,4.85,5.26,7.35,7.81q14.51,14.82,29,29.59a21,21,0,0,1,1.6,1.91c2.08,2.62,2.67,2.68,5,.26q14-14.24,28-28.51c1.46-1.48,2.86-3,4.28-4.51v7c-.81.72-1.66,1.39-2.41,2.16-7.23,7.38-14.42,14.79-21.67,22.14q-21.84,22.17-43.74,44.27c-.18.18-.36.35-.53.54l-6,6.89H1078v4.5h-74.48c-3.42,0-3.53.11-3.53,3.51q0,37.88,0,75.73c0,.88.1,1.75.19,3.3,1.35-1.12,2.26-1.77,3-2.54L1076,386.32c.64-.65,1.36-1.22,2-1.82V391c-5.07,4.82-10.23,9.53-15.18,14.47-20.25,20.16-40.41,40.42-60.7,60.55-1.87,1.86-1.64,2.82.1,4.53q19.39,18.94,38.59,38.09c1.73,1.73,2.75,1.66,4.41,0,8.53-8.67,17.16-17.24,25.78-25.83,2.3-2.3,4.66-4.52,7-6.77v6.5a5.9,5.9,0,0,0-.8.59q-14.75,14.7-29.48,29.41c-1.36,1.35-.79,2.23.3,3.29q14.52,14.22,29,28.45a10.39,10.39,0,0,0,1,.76v6.5c-4.82-4.58-9.73-9.08-14.46-13.75q-30.55-30.21-61-60.48c-.61-.61-1.28-1.17-2.3-2.1-.11,1.26-.22,2-.22,2.69q0,38,0,75.94c0,3,.19,3.2,3.31,3.2H1078v5H911.24l-.24.63c.66.7,1.29,1.41,2,2.09q19.35,19.35,38.69,38.7c.82.82,1.57,1.72,2.35,2.58h-6.5c-.43-.51-.81-1.06-1.28-1.52q-18.6-18.63-37.22-37.22c-.44-.44-1-.79-2-1.6V606h-5q0-20.12,0-40.22c0-3.76,0-3.79-3.74-3.79H820.82c-.87,0-1.74.08-3.27.15,1.11,1.18,1.75,1.9,2.42,2.58l38.68,38.69c.82.82,1.57,1.72,2.35,2.58h-6.5c-.43-.51-.81-1.06-1.28-1.53-13.6-13.61-27.17-27.24-40.87-40.75a7.26,7.26,0,0,0-4.65-1.66c-25.15-.1-50.3-.07-75.45-.06-.86,0-1.72.1-3,.18.66.84,1,1.31,1.37,1.72q9.66,9.93,19.34,19.85,10.77,11.1,21.51,22.25H765c-2.4-2.65-4.71-5.38-7.21-7.92-5.83-5.94-11.78-11.77-17.62-17.69-4.14-4.21-8.18-8.51-12.29-12.75-.57-.59-1.25-1.08-2.38-2V606H721q0-20.36,0-40.7c0-3.12-.18-3.3-3.22-3.3q-40.2,0-80.39,0a23.9,23.9,0,0,0-2.82.37c.6.82.84,1.25,1.17,1.6q15.93,16.69,31.85,33.38c2.69,2.83,5.27,5.76,7.91,8.64H669c-1.4-1.65-2.72-3.37-4.21-4.93-7.86-8.26-15.78-16.46-23.65-24.71-3.44-3.61-6.88-7.23-10.17-11-2.23-2.54-2.43-2.67-4.79-.32l-38.87,38.88c-.64.65-1.21,1.37-1.81,2.06H579c.78-.86,1.53-1.76,2.35-2.58q19.33-19.36,38.68-38.7c.68-.68,1.31-1.39,2.38-2.53-1.42-.1-2.21-.19-3-.19H546c-3.36,0-3.51.12-3.45,3.57.11,6.65.38,13.3.46,20,.09,6.83,0,13.66,0,20.49h-4.5q-.24-20.34-.49-40.69c0-3.12-.19-3.31-3.22-3.31H459.33c-.67,0-1.34.13-2.48.24,2.6,2.74,4.79,5.13,7.07,7.42q16.84,16.89,33.73,33.76c.82.82,1.57,1.72,2.35,2.58h-6.5c-.72-.81-1.4-1.65-2.16-2.41q-8.91-8.94-17.85-17.86c-6.71-6.72-13.62-13.25-20-20.24-2.57-2.79-5.17-3.57-8.72-3.56-25.16.11-50.33.06-75.49.07-1,0-2.05.09-3.68.18,1.14,1.2,1.79,1.92,2.48,2.61q16.38,16.14,32.74,32.27c3,2.93,5.82,6,8.72,8.94H403a9.27,9.27,0,0,0-.76-1q-19.74-19.49-39.49-39a6.72,6.72,0,0,0-1.32-.66c0,2.42.09,4.47,0,6.51-.61,11.37-1.27,22.74-1.91,34.11H355c.19-5,.34-10,.59-15q.66-13,1.44-25.9c.15-2.39-.77-3.19-3.16-3.19q-42.49.09-85,0c-.74,0-1.49.15-3,.3,7.57,7.3,14.54,14.08,21.57,20.81q12,11.48,24,22.89h-7c-3.33-3.25-6.63-6.53-10-9.75-11-10.53-22.06-21-33-31.58-1.61-1.56-2.56-1.46-4.05.07-10.34,10.62-20.79,21.14-31.14,31.74-3,3.09-5.88,6.34-8.81,9.52H211c5.87-6.12,11.72-12.27,17.63-18.35,7.71-7.94,15.48-15.82,23.21-23.74a17.08,17.08,0,0,0,1.3-1.79c-1.24,0-2-.12-2.86-.12-23.73,0-47.46,0-71.19-.07-2.67,0-3.86.85-3.92,3.44,0,.49-.14,1-.15,1.48L174,606h-4.5q.51-20.32,1-40.65c.07-3.15-.17-3.35-3.15-3.35H88.9c-.75,0-1.51.14-2.66.26,4.6,4.85,8.75,9.38,13.06,13.76,7.48,7.59,15.06,15.08,22.58,22.63,2.41,2.42,4.75,4.9,7.12,7.35h-6.5c-.54-.63-1-1.29-1.63-1.88q-23.16-23.43-46.35-46.83-28.36-28.5-56.84-56.89c-2.23-2.23-4.38-4.53-6.59-6.77C7.41,489.91,3.7,486.21,0,482.5V476c.8.72,1.65,1.41,2.4,2.18,6,6.18,12,12.44,18.12,18.57Q47.7,524,75,551.21c.62.61,1.29,1.18,2.28,2.09.28-4.12.68-7.73.74-11.34.24-15.07.36-30.15.54-45.22.11-8.65.26-17.3.38-26q.31-24.86.62-49.71.22-17.47.5-35c0-1,0-1.91,0-3.45-1,.81-1.55,1.15-2,1.58-4.8,4.62-9.63,9.21-14.37,13.89q-26,25.72-52,51.51C7.75,453.45,3.87,457.21,0,461v-6.5c7.48-7.23,15-14.39,22.41-21.69Q49.61,406,76.7,379.05c2.56-2.54,2.55-2.56.07-5L2.23,299.48c-.7-.7-1.48-1.32-2.23-2V291c.92.84,1.88,1.65,2.76,2.53q38.72,38.69,77.41,77.41c1.31,1.32,2.27,2.46,4.21.51q19.1-19.06,38.4-37.92c1.55-1.52,1.63-2.52,0-4q-8.88-8.43-17.57-17-21.79-21.49-43.54-43L1.88,210.13C1.29,209.55.63,209,0,208.5V202c7.13,6.88,14.32,13.7,21.37,20.66q29.34,29,58.56,58.07c1.3,1.29,2.22,1.91,3.87.3,8-7.79,16.08-15.45,24.11-23.2Q124,242.31,140,226.72q13.95-13.6,27.82-27.31c.59-.58,1.1-1.27,2.09-2.41H0v-5H75.43c3.51,0,3.57-.07,3.57-3.71V112.37c0-.88-.08-1.76-.14-3.16-1,.8-1.53,1.22-2,1.71-10.74,10.57-21.51,21.1-32.2,31.72q-21.08,21-42.05,42C1.76,185.47.86,186.22,0,187v-6.5c.69-.6,1.41-1.17,2.06-1.81q24.78-24.52,49.55-49.06c8.4-8.33,16.72-16.75,25.12-25.08A7,7,0,0,0,79,99.27Q79,61.14,79,23c0-.85-.17-1.71-.33-3.16-1.18,1.06-1.94,1.67-2.62,2.35l-53,53c-.59.59-1.12,1.23-1.71,1.83L0,98.5V92c5-5.09,10-10.22,15.06-15.28Q45.77,46,76.52,15.24c.67-.68,1.31-1.4,2-2.1l-.22-.64H0V8Q40.24,8,80.49,8a6.93,6.93,0,0,0,4.17-1C87.13,4.83,89.24,2.33,91.5,0H98L90.83,7.64H259.55l.22-.58L252.5,0h7c1.9,2,3.86,3.91,5.67,6A6.13,6.13,0,0,0,270.25,8Q311,8,351.72,8c.86,0,1.72-.1,3.16-.18L347.5,0H354c1.88,2,3.77,3.91,5.64,5.89a1.62,1.62,0,0,0,2.72,0C364.23,3.91,366.12,2,368,0h6.5l-7.23,7.71h166L526,0h6.5l3.39,3.55.61-.37V0h5V2.81l.72.23L545,0h6.5l-7.17,7.66c1.42.16,2.19.31,3,.33,1.67,0,3.33,0,5,0Q591.15,8,630,8a7,7,0,0,0,4.17-1C636.63,4.83,638.75,2.33,641,0h6.5l-7.28,7.76H811.33L804,0h6.5c1.77,1.74,3.69,3.37,5.28,5.26,2.2,2.62,5,2.79,8.08,2.78,23.87-.07,47.75,0,71.63,0,.75,0,1.5,0,2.25,0C899.3,8,900,7.31,900,5.74c0-1.91,0-3.83,0-5.74h4.5V7.82L913,0h6.5Q912,7.35,904.56,14.7q-20.17,19.91-40.38,39.81c-1.6,1.57-1.5,2.57.07,4Q871.17,65,877.91,71.7c8.23,8.15,16.39,16.36,24.58,24.55,2.5,2.5,2.51,2.5,5,0q42.32-42.31,84.62-84.63C996,7.76,999.72,3.86,1003.5,0h6.5l-7.5,8H1078v4.5h-75.23a16.53,16.53,0,0,0,1.11,1.67c4.3,4.63,8.58,9.27,12.92,13.87q9.06,9.62,18.19,19.18,13,13.61,26.11,27.15c.86.9,1.64,1.88,2.5,2.78q7.19,7.42,14.4,14.85v6.5c-.8-.72-1.66-1.39-2.4-2.17q-13.32-14-26.61-28.08-9.79-10.32-19.62-20.62-14.28-15-28.57-30a9.09,9.09,0,0,0-1.56-1c-.1,1.29-.24,2.24-.24,3.19q0,42.48,0,85a6.29,6.29,0,0,0,2.12,5.06c6.52,5.93,13,11.93,19.45,17.92q10.53,9.74,21,19.53c1.09,1,1.86,1.06,2.86-.16q12.1-14.74,24.3-29.44c3-3.63,6.19-7.16,9.29-10.73v7a15.78,15.78,0,0,0-1.64,1.52q-14.14,17.07-28.28,34.16c-1.28,1.53-1.24,2.59.25,4,5.63,5.16,11.15,10.45,16.76,15.65,4.26,3.94,8.6,7.81,12.91,11.71v6.5l-11.13-10.39c-5.64-5.29-11.25-10.63-16.94-15.87-9.66-8.91-19.4-17.73-29.05-26.65-5.93-5.47-11.75-11.07-17.65-16.58-1.17-1.08-2.5-2-4.24-3.37v3.12q0,35.37,0,70.74c0,3.4.1,3.51,3.52,3.51H1078v5H918c1.23,1.59,1.9,2.64,2.75,3.51q10.69,11,21.46,22,13.9,14.19,27.83,28.35c.29.29.57.61.85.91q12.75,13.22,25.48,26.43c1.1,1.14,2,1.22,3.13.06,2.07-2.05,4.31-3.92,6.39-5.95q19-18.45,38-36.94c10.84-10.6,21.61-21.26,32.42-31.89C1076.84,203,1077.43,202.49,1078,202Zm-38.28,127.79c-.46-.59-.77-1.07-1.16-1.48q-11.13-11.64-22.28-23.27-7.69-8-15.46-16-17.76-18.29-35.53-36.54-8-8.23-16-16.49c-11.95-12.3-23.95-24.56-35.84-36.92-1.75-1.83-3.13-2.21-4.9-.32-.4.43-.87.78-1.29,1.18q-11.49,10.74-23,21.49-16,15-32.06,30-12.47,11.7-24.91,23.43l-32.59,30.57q-11.47,10.75-23,21.48c-2.51,2.34-2.54,2.48-.15,4.87l37.47,37.47c2.92,2.92,2.92,2.92,5.93-.09l86.79-86.79c2.41-2.41,2.94-2.46,5.09-.3q27.2,27.4,54.37,54.83c11.45,11.52,23,23,34.43,34.5,1.42,1.43,2.37,1.33,3.68-.07q5.53-5.94,11.22-11.74,13.8-14.1,27.65-28.17C1038.75,331,1039.19,330.41,1039.72,329.79ZM257.85,188l.66-.28V16.25c0-3.73,0-3.76-3.78-3.76q-38,0-76,0a6.32,6.32,0,0,0-4.9,1.89Q153.46,34.63,133,54.78c-4,3.94-4,4,0,7.92q45.56,45.83,91.13,91.63Q240,170.28,255.9,186.15C256.53,186.78,257.2,187.37,257.85,188ZM266,556.31l.33.7h3c28.33,0,56.66-.06,85,.08a10.84,10.84,0,0,0,8.2-3.31c10.39-10.09,20.83-20.13,31.21-30.23,9.07-8.83,18.08-17.73,27.12-26.59l.72-.69q12.15-11.68,24.34-23.33c1.39-1.32,1.28-2.22-.07-3.43-2.73-2.44-5.41-4.94-8-7.51-5.87-5.8-11.68-11.65-17.52-17.48-4.83-4.83-9.61-9.72-14.52-14.47-3.76-3.64-3.84-3.57-7.78-.39-.9.73-1.81,1.47-2.64,2.28Q382.7,444,370.11,456.15,356.79,469,343.47,481.77l-25.38,24.4c-8.65,8.31-17.31,16.59-25.92,24.93-7.48,7.24-14.89,14.55-22.35,21.8C268.6,554.09,267.28,555.18,266,556.31ZM535.49,374c-1-1.18-1.49-1.76-2-2.27Q468.82,307,404.16,242.34c-1.75-1.75-2.77-1.59-4.4.08q-20,20.43-40.18,40.74c-.17.17-.34.36-.52.53-1.17,1.1-1,2.1.1,3.18,7.17,6.83,14.35,13.65,21.46,20.53Q397.95,324.15,415.2,341q15.63,15.27,31.14,30.68a7.39,7.39,0,0,0,5.71,2.39q40-.1,80,0ZM628.11,188.6a23.31,23.31,0,0,0,.38-2.37q.27-11.22.51-22.45c.16-7.15.36-14.3.48-21.46.21-12.23.32-24.46.56-36.7a6.33,6.33,0,0,0-2.15-5c-7.9-7.64-15.73-15.35-23.58-23q-12.22-12-24.44-23.94Q560.3,34.31,540.79,15c-1.7-1.7-2.61-1.47-4.16.09q-19.44,19.62-39,39.09c-2.36,2.35-2.36,2.37,0,4.69q23,23,46.1,46.08c6.49,6.46,13.16,12.74,19.64,19.2q31.06,31,62,62C626.1,186.85,626.92,187.52,628.11,188.6ZM88.72,373.71a23.21,23.21,0,0,0,2.36.29q39.24,0,78.47-.05a6.17,6.17,0,0,0,3.57-1.35c3.14-2.59,6.14-5.35,9.13-8.12q14.37-13.32,28.69-26.68c8.39-7.84,16.73-15.72,25.11-23.58,2.85-2.67,5.74-5.31,8.6-8,6.34-5.88,12.66-11.79,19-17.65,1.33-1.22,1.08-2.15-.1-3.3-3.34-3.26-6.65-6.55-9.88-9.92q-15.19-15.86-30.32-31.79c-1.2-1.26-2-1.26-3.25,0-6.51,6.45-13.12,12.78-19.64,19.22q-23.2,22.89-46.37,45.85-21.5,21.25-43,42.5c-6.81,6.75-13.56,13.54-20.33,20.32C90.18,372.07,89.61,372.74,88.72,373.71ZM257.5,383.8l-.67-.28c-.65.61-1.32,1.2-1.95,1.84L236.23,404.5l-42,43.05q-9.24,9.48-18.47,19-11.16,11.43-22.35,22.85L131,512.22c-1,1-2,1.9-.35,3.45,9.9,9.38,19.72,18.87,29.56,28.32,3.73,3.57,7.49,7.09,11.17,10.71,1.13,1.1,2,1.19,3.15.07,4.77-4.52,9.63-8.94,14.38-13.48q13.55-12.93,27-26c7.47-7.24,14.86-14.58,22.35-21.79,4.91-4.74,9.84-9.45,15-14a11.87,11.87,0,0,0,4.37-9.91c-.2-27.56-.1-55.13-.1-82.7ZM636.8,15.69a19.32,19.32,0,0,0-.29,2q-.27,10.23-.51,20.46c-.17,7.16-.37,14.31-.48,21.46-.2,12.82-.42,25.64-.44,38.46a7.13,7.13,0,0,0,1.89,4.56c7.44,7.51,15.06,14.84,22.61,22.24q13.21,12.94,26.4,25.89L721,185.29c.17.18.36.34.53.53,1,1.15,1.89,1,2.94,0,2.92-2.84,6-5.57,8.86-8.42C744,167,754.48,156.54,765.11,146.2c1.63-1.58,1.47-2.47-.06-4q-21.49-21.09-42.87-42.29-14.4-14.22-28.86-28.38Q676,54.47,658.63,37.35c-6.52-6.45-13-13-19.46-19.43C638.53,17.29,637.86,16.69,636.8,15.69ZM817.56,556.8c1.43.1,2.15.2,2.87.2,26.91,0,53.82,0,80.73-.07a7,7,0,0,0,4.35-1.79q16.43-15.92,32.62-32c17.66-17.58,35.22-35.24,52.9-52.79,1.79-1.78,1.84-2.81,0-4.59q-19.39-18.95-38.59-38.08c-1.35-1.34-2.15-1.24-3.44,0-5.91,5.87-11.93,11.62-17.88,17.44q-13.56,13.29-27.1,26.6c-8.44,8.28-16.91,16.53-25.33,24.84Q855.32,519.63,832,542.75c-1.9,1.87-4,3.58-5.85,5.44C823.4,550.86,820.74,553.6,817.56,556.8ZM260.2,197.35a7.12,7.12,0,0,0-1.26-.32q-40.11,0-80.23,0a3.9,3.9,0,0,0-2.45.93q-10.53,9.93-21,20Q139.66,233,124.08,248.18q-18.19,17.67-36.36,35.35c-2.5,2.44-2.48,2.49-.08,4.86,12.8,12.65,25.63,25.26,38.38,38,1.61,1.6,2.56,1.38,4-.11q20.28-20.17,40.68-40.23,17-16.77,34-33.51,26.83-26.53,53.62-53.11C258.92,198.83,259.43,198.21,260.2,197.35ZM626,382.82l-.7-.2q-11.92,12.58-23.87,25.16-11.1,11.66-22.26,23.27-15.78,16.53-31.55,33.05-11.48,12-23,24c-8.12,8.47-16.22,17-24.42,25.36-1.38,1.42-1.4,2.27,0,3.62q8.33,7.91,16.5,16c6.94,6.85,13.8,13.77,20.7,20.66,2.54,2.54,2.55,2.54,5,0q40.57-40.56,81.16-81.1a7.37,7.37,0,0,0,2.39-5.7q-.1-40.74,0-81.48ZM272.63,191.73c1.19.14,1.74.27,2.3.27q38.11,0,76.22-.06a5.89,5.89,0,0,0,3.69-1.61q45.32-45.17,90.54-90.41c1.6-1.59,1.71-2.72,0-4.31-5.61-5.32-11.14-10.75-16.69-16.15C422.1,73,415.46,66.59,408.9,60.09c-1.22-1.2-2-1.28-3.26,0-7.81,7.73-15.71,15.37-23.53,23.09q-23.3,23-46.54,46-30.26,30-60.49,60C274.38,189.86,273.72,190.59,272.63,191.73Zm271.1,178.69c.94-.89,1.49-1.36,2-1.88l32.16-33.15L612,300.28q17.31-17.82,34.63-35.63c7.67-7.87,15.33-15.75,23.09-23.53,1.62-1.63,1.64-2.61,0-4.23q-18.65-18.46-37.11-37.11c-1.63-1.65-2.61-1.59-4.23,0-10.43,10.4-21,20.66-31.46,31.06q-25.68,25.56-51.28,51.2a6.61,6.61,0,0,0-2.17,5q.09,40.11,0,80.22C543.51,368.18,543.63,369,543.73,370.42Zm265,183.05a18.84,18.84,0,0,0,.27-2q0-40.12,0-80.25a5.78,5.78,0,0,0-1.34-3.31c-1.77-2.19-3.75-4.23-5.71-6.27q-13.68-14.22-27.38-28.42c-6.86-7.14-13.66-14.34-20.52-21.48q-14.29-14.86-28.63-29.65c-2.33-2.4-2.37-2.37-4.69-.05L684.8,418c-3.71,3.7-3.73,3.73,0,7.57q15.71,16.25,31.46,32.47l29.52,30.52q15.29,15.8,30.59,31.57c9.48,9.73,19,19.38,28.52,29.08C806.07,550.38,807.16,551.71,808.72,553.47ZM991.68,192l.29-.66c-.6-.65-1.18-1.32-1.81-1.94-5.85-5.69-11.74-11.34-17.54-17.07q-26.11-25.82-52.19-51.68Q890.72,91.22,861,61.72c-1.36-1.35-2.29-1.76-3.86-.19q-17.17,17.09-34.51,34c-1.45,1.42-1.53,2.35,0,3.86,9.72,9.93,19.34,20,29,29.94q17.11,17.66,34.28,35.28c8.14,8.35,16.34,16.62,24.44,25a7.21,7.21,0,0,0,5.69,2.41c24.32-.07,48.64,0,73,0ZM351.29,369.82c.1-1.27.21-2,.21-2.7,0-26.25,0-52.49-.08-78.73a7.26,7.26,0,0,0-1.94-4.54c-3.49-3.67-7.3-7.05-10.94-10.58q-18.1-17.58-36.17-35.17Q284,220.25,265.69,202.37c-1.42-1.4-2.27-1.61-3.8-.09-11.21,11.17-22.51,22.24-33.78,33.36-3,3-3,3-.21,6,.78.86,1.43,1.85,2.24,2.68q13.85,14.4,27.73,28.76,12.92,13.39,25.81,26.8Q297.81,314.58,312,329.2c7.54,7.77,15.13,15.48,22.69,23.23.52.53.93,1.18,1.45,1.71C341,359.22,345.92,364.28,351.29,369.82ZM263.49,102.3v85.48a22.94,22.94,0,0,0,.05,2.49c.2,1.85,1.27,2,2.62,1.17a10.3,10.3,0,0,0,1.66-1.51q13.74-13.47,27.45-27,29.93-29.61,59.83-59.25c1.68-1.66,1.82-2.72,0-4.4-8.65-8.18-17.2-16.46-25.77-24.72Q315,60.74,300.63,46.85,284,30.79,267.43,14.72a16.58,16.58,0,0,0-3.22-1.91,18.4,18.4,0,0,0-.69,3.52Q263.46,59.32,263.49,102.3Zm-1.28,280.44V553.27a38.75,38.75,0,0,0,3.26-2.52q17-16.39,33.89-32.83c5.87-5.66,11.88-11.17,17.75-16.82C328,490.6,338.86,480,349.79,469.53c1.47-1.42,1.33-2.31-.07-3.61q-8.79-8.15-17.44-16.43-16.63-15.83-33.22-31.71C293,412,287,406.06,281,400.22c-3.71-3.58-7.43-7.16-11.19-10.68C267.42,387.34,265,385.23,262.21,382.74Zm552-1.62v172c.71-.54,1.13-.8,1.47-1.13q7.74-7.46,15.44-14.93c6.57-6.39,13.15-12.76,19.67-19.19q24.36-24,48.7-48.12c1.49-1.48,1.43-2.67,0-4-1.71-1.58-3.5-3.07-5.15-4.72q-38.82-38.76-77.61-77.57C816.08,382.83,815.36,382.18,814.24,381.12ZM624.47,191.87c-1.14-1.21-1.78-1.93-2.46-2.61l-67.53-67c-4.91-4.88-9.82-9.74-14.65-14.69-1.38-1.42-2.31-1.35-3.68,0-5,4.93-10.06,9.71-15,14.62q-20.46,20.16-40.88,40.38c-9.11,9-18.15,18.13-27.22,27.21-.54.54-1,1.16-1.8,2.12Zm-85.67,8.45c-.69.49-1,.65-1.22.87L509.64,227.6c-5.56,5.26-11.15,10.48-16.71,15.75Q473.27,262,453.62,280.64c-2.42,2.3-2.37,2.37-.06,4.68l82.91,82.9c.61.61,1.28,1.18,2.33,2.14ZM994.31,16.18c-1,.87-1.57,1.32-2.08,1.84q-41,41-82,82c-1.54,1.54-1.61,2.53,0,4q8.53,8.07,16.86,16.33,32.49,32.17,64.92,64.39c.61.61,1.28,1.17,2.33,2.13ZM811.36,12.73H640.64c1,1.06,1.56,1.73,2.19,2.35,7.85,7.7,15.73,15.36,23.55,23.08q25.43,25.11,50.79,50.27c2.31,2.29,4.59,4.59,6.89,6.89s2.44,2.43,4.87,0l80.24-80.23C809.79,14.46,810.38,13.79,811.36,12.73Zm-357.06,366c1.07,1.21,1.62,1.91,2.25,2.53,4.19,4.05,8.41,8.06,12.59,12.12q18.38,17.83,36.7,35.7,15.9,15.54,31.71,31.18c3.77,3.71,3.77,3.71,7.16-.2.21-.25.45-.49.68-.73q11.22-11.72,22.45-23.44c7.19-7.52,14.35-15.07,21.57-22.56q15-15.56,30-31.07c.89-.91,1.59-2,2.79-3.53Zm262.51-5c-.87-1-1.36-1.61-1.93-2.15-2.42-2.29-4.89-4.52-7.29-6.82q-12.54-12-25-24-13.5-13-27-26c-7.83-7.59-15.6-15.24-23.4-22.87l-.91-.86c-1.3-1.23-2.39-1.34-3.77.13-4.78,5.1-9.68,10.09-14.56,15.11Q595.71,324,578.46,341.76c-9.71,9.95-19.49,19.84-29.23,29.77-.6.61-1.15,1.27-2,2.26Zm-461.89-182c-1.1-1.17-1.76-1.89-2.44-2.58q-22-22.29-44.09-44.57c-12-12.11-24.17-24.12-36.17-36.26-1.6-1.61-2.58-1.58-4,.07-1.88,2.22-3.88,4.34-5.91,6.43q-11.67,12-23.4,23.91-17.16,17.46-34.35,34.88c-5.37,5.46-10.67,11-16,16.49a17.43,17.43,0,0,0-1.22,1.63ZM805.2,556.86c-.58-.79-.82-1.21-1.14-1.55-7.48-7.82-14.93-15.67-22.46-23.44-7.88-8.14-15.84-16.2-23.76-24.3l-.52-.54q-15.55-16-31.1-32.11c-1.32-1.37-2.22-1.18-3.51.05-3.37,3.21-6.91,6.25-10.32,9.42q-18.55,17.25-37.07,34.55c-8.39,7.84-16.73,15.74-25.12,23.57-3.47,3.24-7,6.37-10.52,9.58-1.47,1.37-2.85,2.84-4.77,4.77ZM88.44,378.8c.82,1,1.23,1.6,1.73,2.11q13.38,13.65,26.78,27.28,26.27,26.58,52.55,53.13c1.66,1.69,2.59,2.09,4.46.1,6.78-7.23,13.79-14.23,20.71-21.33q9.95-10.18,19.89-20.38,14.79-15.07,29.61-30.11c2.39-2.44,4.85-4.82,7.22-7.27,1-1,1.79-2.11,3-3.53Zm259.8-5c-1.85-2.15-3.33-4-5-5.74q-12.94-13.53-26-27c-7.77-8-15.6-15.95-23.4-23.92-.35-.36-.66-.75-1-1.11q-11.68-12.14-23.37-24.28a1.51,1.51,0,0,0-2.52-.05c-5.25,5-10.55,9.9-15.83,14.85S240.39,316.69,235,321.74Q217.53,338,200.06,354.17c-5.62,5.2-11.3,10.32-16.92,15.5-1.29,1.19-2.49,2.47-4.14,4.12Zm385.4-176.58c1,1,1.53,1.73,2.15,2.34l22.32,21.83q13.29,13,26.56,26.06c10,9.8,20,19.59,29.9,29.45,1.52,1.51,2.66,1.58,4.19.12,5.42-5.17,10.9-10.27,16.36-15.39,7.89-7.39,15.81-14.76,23.67-22.18,10.16-9.6,20.26-19.27,30.42-28.86,3.14-3,6.43-5.79,9.61-8.72,1.47-1.35,2.85-2.8,4.71-4.65ZM631.18,553.45a16.77,16.77,0,0,0,1.71-1.11Q647.07,539.2,661.22,526c8.87-8.3,17.68-16.66,26.52-25,2.55-2.39,5.13-4.75,7.69-7.12Q707.72,482.6,720,471.27c1.22-1.12,1.12-1.92,0-3.07-4-4.08-8-8.29-12-12.4q-13.26-13.57-26.57-27.1c-.41-.42-.81-.85-1.17-1.3-2.2-2.74-2.2-2.75-4.69-.26q-21.2,21.19-42.43,42.37a6.88,6.88,0,0,0-2.23,5.27q.09,37.73,0,75.46C631,551.13,631.1,552,631.18,553.45Zm94.64-356.62c-.17,1.42-.32,2.06-.32,2.7q0,42.24.07,84.48a6.34,6.34,0,0,0,1.7,3.89c2.25,2.44,4.87,4.54,7.22,6.88q14.37,14.28,28.65,28.62c2.63,2.63,2.65,2.65,5.46.38,1.09-.89,2.15-1.84,3.17-2.81,4.17-4,8.28-8,12.48-11.88q13.57-12.69,27.25-25.3c1.49-1.38,1.3-2.38-.09-3.67-3.78-3.51-7.5-7.08-11.2-10.68q-11.81-11.51-23.56-23.07Q757.95,228,739.29,209.53c-2.14-2.11-4.2-4.28-6.38-6.34S728.5,199.23,725.82,196.83ZM265.29,378.7c1,1.19,1.49,1.85,2.07,2.4,1.94,1.82,3.94,3.57,5.87,5.41q11.11,10.58,22.2,21.19,15.9,15.15,31.79,30.3,13,12.42,25.9,24.92c1.35,1.32,2.25,1.5,3.68.08q10.18-10.11,20.54-20.06c6.05-5.82,12.17-11.58,18.29-17.33,2.61-2.44,2.68-2.58.2-5q-20.25-20-40.49-40a7,7,0,0,0-5.38-2.06q-40.59,0-81.19,0C267.88,378.51,267,378.6,265.29,378.7Zm455.46-8.26c.12-1.27.24-2,.24-2.72q0-38.6-.06-77.2a6.2,6.2,0,0,0-1.66-3.91c-14.06-14.2-28.23-28.3-42.32-42.47-1.44-1.45-2.42-1.56-3.86,0-5,5.32-10.15,10.56-15.26,15.8Q646,272.06,634.07,284.18c-.17.17-.34.36-.52.53-1,1-.76,1.75.24,2.68q7.94,7.41,15.76,14.93,12.71,12.17,25.38,24.39,16.34,15.78,32.63,31.6,5.66,5.47,11.37,10.86A18.25,18.25,0,0,0,720.75,370.44ZM272.06,12.49c.8,1,1,1.33,1.32,1.61,5.5,5.2,11.06,10.34,16.51,15.59q16.55,15.93,33,32c8.82,8.6,17.58,17.26,26.4,25.87,3.16,3.08,6.44,6,9.57,9.13,1.24,1.23,2.16,1.2,3.32,0,1.41-1.53,2.92-3,4.4-4.43,5.79-5.75,11.56-11.53,17.37-17.26q9.24-9.12,18.55-18.18a1.82,1.82,0,0,0,0-3c-1.6-1.46-3.27-2.85-4.81-4.36Q380.2,32.22,362.81,15a8.13,8.13,0,0,0-6.19-2.55q-40.61.09-81.21,0ZM84.72,382.28c-.11,1.64-.2,2.45-.22,3.25-.17,10.48-.36,21-.49,31.45-.2,16.72-.32,33.45-.55,50.17a6.59,6.59,0,0,0,2.17,5.29c9.45,9,18.82,18.11,28.23,27.17,3.48,3.35,7,6.62,10.46,10,1.09,1.08,1.87,1.06,2.88,0,2.71-2.93,5.42-5.86,8.22-8.71q15.65-16,31.37-31.84c1.54-1.54,1.56-2.49,0-4-6.82-6.83-13.48-13.81-20.27-20.68q-29.61-29.91-59.26-59.77C86.65,383.9,86,383.36,84.72,382.28Zm734.89-3.63-.33.65c.7.78,1.37,1.6,2.11,2.33q39.58,39.62,79.2,79.19c.82.83,1.78,1.51,2.6,2.33,1.41,1.44,2.46,1,3.75-.29q19.15-19,38.43-37.9c1.69-1.65,1.88-2.63.07-4.35-7.58-7.24-15.06-14.61-22.53-22-5.87-5.8-11.73-11.6-17.48-17.52a8.21,8.21,0,0,0-6.4-2.65c-25.5.07-51,0-76.5.05C821.56,378.51,820.58,378.6,819.61,378.65Zm-366.61,6V388q0,39.48-.05,79a7.29,7.29,0,0,0,2.42,5.69q19.1,18.7,38.08,37.52c.11.12.24.23.35.36.93,1.16,1.84,1.22,2.86.05,1.47-1.7,3-3.38,4.51-5q16.47-17.25,33-34.46c3.84-4,3.89-4,0-7.8Q517,446.73,499.9,430.12c-8.77-8.55-17.48-17.14-26.23-25.7q-9.37-9.17-18.79-18.28C454.48,385.75,454,385.44,453,384.65Zm81.72-186.76-.53-.9h-10q-37.74,0-75.49.06a6.89,6.89,0,0,0-4.28,1.37c-4.46,4-8.75,8.19-13,12.4-7.23,7.15-14.39,14.37-21.58,21.55-4.63,4.63-4.63,4.63,0,9.29q18,18,36,36.09c1.49,1.5,2.5,1.75,4.06.1,2-2.12,4.25-4,6.37-6q13.18-12.4,26.33-24.84c11-10.44,21.91-20.92,32.9-31.35,4.4-4.18,8.89-8.28,13.34-12.41Zm-84.06-12.44c1.19-1.12,1.86-1.72,2.5-2.36q14.52-14.26,29-28.54,25.23-24.93,50.46-49.88c1.75-1.73,1.61-2.75-.06-4.41q-19.26-19.08-38.35-38.34c-1.64-1.66-2.66-1.85-4.41-.08Q471.92,80,453.8,97.9a7.34,7.34,0,0,0-2.34,5.52c-.07,9.16-.29,18.31-.45,27.46-.18,9.9-.39,19.8-.49,29.7-.08,7.25,0,14.5,0,21.75C450.5,183.13,450.58,183.93,450.66,185.45ZM83.49,187.68l.66.29c.65-.6,1.32-1.18,1.94-1.81q15.3-15.78,30.59-31.56,11.58-11.9,23.23-23.74,12.41-12.68,24.83-25.33c2.25-2.3,2.27-2.28-.08-4.63L128.44,64.67c-2.68-2.68-2.67-2.69-5.43.07q-18.47,18.47-37,36.9a7.88,7.88,0,0,0-2.6,6.12c.08,25.74,0,51.48,0,77.22ZM815,16.75l-.74-.17c-.65.62-1.32,1.22-2,1.86l-80,80c-.35.36-.68.73-1.06,1.06-1.12,1-1.13,1.93,0,2.93,1.62,1.43,3.28,2.83,4.81,4.35q13.72,13.65,27.4,27.36c1.65,1.65,3.32,3.28,5,4.9,1.38,1.33,2.54,1.31,4-.15q20.18-20.09,40.51-40A6.75,6.75,0,0,0,815,93.58q-.07-37.1,0-74.2Zm-.16,87.05c-.83.63-1.31.92-1.7,1.3-5.21,5-10.43,10-15.6,15.11Q780.89,136.58,764.27,153q-17.88,17.63-35.73,35.27a13.36,13.36,0,0,0-1.61,2.6c1,.39,2.05.8,3.09,1.14a3.27,3.27,0,0,0,1,0h80.21c3.76,0,3.79,0,3.79-3.74q0-40.74,0-81.46C815,105.94,814.92,105.07,814.85,103.8Zm-454.48,275c1,1.14,1.48,1.84,2.1,2.44,4.07,3.93,8.19,7.8,12.23,11.77q18.06,17.76,36.08,35.58c10,9.91,19.89,19.91,29.88,29.82,2.32,2.3,4.85,4.4,7.64,6.91.1-1.25.2-2,.2-2.69q0-39.84,0-79.69c0-3.59-.82-4.4-4.44-4.4H363.62C362.75,378.51,361.89,378.64,360.37,378.77ZM820.73,104l-.63.33c0,.81-.1,1.63-.1,2.45q0,40.86,0,81.74c0,3.41.11,3.51,3.52,3.52h79.24c.86,0,1.72-.1,3.31-.2ZM631,463.52l84.89-84.88c-.4,0-1.36-.13-2.32-.13H634.62c-3.55,0-3.63.08-3.63,3.65v81.37ZM720.17,192l.3-.65c-.6-.65-1.17-1.33-1.8-1.94-5.31-5.17-10.65-10.3-15.95-15.48q-11.81-11.5-23.56-23.06-19.75-19.45-39.47-38.95c-1-1-2-2-3-3a18.78,18.78,0,0,0-1.79-1.29,18.52,18.52,0,0,0-.37,2.23q-.27,9.72-.51,19.45c-.17,7.32-.37,14.64-.49,22q-.3,18.48-.51,37c0,3.73,0,3.77,3.76,3.77h83.41Zm-359.23,0h79.78l2,0c1.83,0,2.71-1,2.78-2.8.14-4.24.39-8.47.49-12.71q.3-13.84.5-27.69.28-20.34.51-40.69c0-.79-.09-1.58-.12-2.06ZM630.08,96a19,19,0,0,0,.41-2.33q.27-10.11.51-20.21c.17-7.57.36-15.14.49-22.72q.28-17.34.51-34.71c0-3.41-.1-3.51-3.5-3.52H548.26c-.86,0-1.72.1-3.12.19.94,1,1.45,1.67,2,2.23,4.13,4,8.31,7.93,12.42,12q14.82,14.51,29.58,29.07Q608.57,75.05,628,94.19C628.51,94.74,629.15,95.2,630.08,96ZM991.53,373.85l-84.07-84.78-1,.43v9.37q0,34.35,0,68.71c0,1,0,2,0,3-.24,3.42-.25,3.44,3.15,3.44h78.7C989.11,374,989.92,373.93,991.53,373.85ZM83.49,96.74l.7.17,84.4-83.74a5.61,5.61,0,0,0-2.84-.67h-77c-4.23,0-5.28,1.07-5.28,5.37V96.74Zm826.28,282c1.12,1.25,1.68,1.95,2.31,2.57,6.14,6,12.32,11.94,18.43,18q21.87,21.58,43.7,43.23c6.32,6.27,12.61,12.58,18.92,18.85a13.81,13.81,0,0,0,1.73,1.23c.07-1.16.14-1.9.14-2.63q0-39.12,0-78.24c0-3.05-.18-3.22-3.3-3.22H913C912.16,378.51,911.37,378.63,909.77,378.76Zm-7.86-88.54-83.69,83.69c.34,0,1.15.09,1.95.09h78c3.14,0,3.28-.18,3.35-3.18.15-5.74.45-11.48.47-17.22.06-20.41,0-40.82,0-61.24C902,291.49,901.93,290.61,901.91,290.22Zm-181.07-9.83c.06-.88.15-1.77.15-2.65q0-38.62,0-77.23c0-3.41-.11-3.51-3.52-3.52H639.75c-.86,0-1.72.1-2.12.13ZM356.68,291c-.09,1.51-.18,2.38-.18,3.25q0,38.12,0,76.23c0,3.4.11,3.5,3.52,3.51h78.72c.87,0,1.73-.1,3.13-.18-.94-1-1.44-1.67-2-2.23-4.13-4-8.3-7.94-12.42-11.94Q409.67,342.43,392,325.18c-10.9-10.65-21.73-21.37-32.6-32A34.1,34.1,0,0,0,356.68,291ZM994.85,473.07l-83.93,83.27a5.62,5.62,0,0,0,2.82.66h77.72c3.44,0,3.54-.11,3.55-3.48q0-38.74,0-77.47C995,475.32,994.93,474.58,994.85,473.07ZM351.36,278.69c.07-1.26.14-2,.14-2.73q0-37.86,0-75.7c0-3.09-.17-3.26-3.26-3.26H269.8c-.7,0-1.4.13-2.91.28,2.66,2.42,4.83,4.29,6.89,6.28Q291,220.22,308.17,237c9.47,9.24,18.88,18.55,28.34,27.8,4.4,4.31,8.86,8.55,13.31,12.81A14.85,14.85,0,0,0,351.36,278.69ZM166.94,556.81c-1.22-1.26-2-2.11-2.78-2.87-4.85-4.56-9.76-9.05-14.58-13.64q-11.76-11.17-23.43-22.43-14.76-14.21-29.46-28.43-5.76-5.55-11.55-11a13.6,13.6,0,0,0-1.4-1c-.26,2.82-.66,5.35-.71,7.88-.23,12.73-.35,25.46-.53,38.19-.15,10.15-.27,20.3-.53,30.45-.06,2.5,1,3.1,3.25,3.09q39.36-.07,78.7,0C164.71,557,165.5,556.9,166.94,556.81ZM729.53,378.7l-.3.8,79.56,82.89c.11-1.35.21-2.07.21-2.79q0-39,0-78c0-2.95-.21-3.13-3.39-3.14H732.14C731.27,378.51,730.4,378.64,729.53,378.7ZM438.4,197.6l-.21-.61H360c-3.4,0-3.5.11-3.51,3.52q0,37.88,0,75.74c0,.86.1,1.72.14,2.26Q397.55,238,438.4,197.6ZM806.25,374l.26-.83c-26.89-26.46-53.11-53.61-80.34-79.73l-.68.3v76.62c0,3.57.07,3.64,3.65,3.64h77.11ZM366.39,556.19c.14.23.27.47.4.71.82,0,1.63.1,2.45.1H445c3.42,0,3.52-.11,3.52-3.51q0-36.63,0-73.25c0-.86-.1-1.72-.21-3.27ZM624,197.72l-.33-.6c-.74,0-1.48-.12-2.21-.12H546.77c-3.09,0-3.26.17-3.27,3.26q0,36.87,0,73.72c0,.86.17,1.71.34,3.25ZM533.91,556.85c-1-1.11-1.58-1.79-2.21-2.4-7.49-7.34-15-14.64-22.48-22Q483,506.55,456.85,480.6c-.65-.65-1.27-1.32-2-1.94-.45-.4-1-.72-1.9-1.39v3.22q0,36.36,0,72.71c0,3.78,0,3.81,3.72,3.81h74C531.55,557,532.42,556.92,533.91,556.85Zm-87-466.41.62-.26c0-.81,0-1.63,0-2.44.16-8.65.37-17.3.48-25.95q.31-23,.52-45.93c0-3.21-.15-3.36-3.41-3.36H370.15c-.83,0-1.67.13-2.5.2L367,13.75a14.43,14.43,0,0,1,2.54,1.62q17.15,16.56,34.21,33.2c12.14,11.88,24.18,23.85,36.3,35.74C442.26,86.44,444.61,88.4,446.88,90.44Zm100,466.45c.67,0,1.41.11,2.14.11h73.71c3.1,0,3.27-.17,3.27-3.25q0-37,0-73.95a14.82,14.82,0,0,0-.18-1.84Zm-15-544.22c-.8-.07-1.52-.17-2.24-.17H456.42c-3.1,0-3.37.32-3.42,3.47-.16,9.48-.36,19-.49,28.44Q452.21,67,452,89.59c0,.92.12,1.84.19,2.75ZM820,90.7l.78.37,78.9-77.83-.49-.75H823.74c-3.72,0-3.75,0-3.75,3.79V90.7ZM257.27,481.79c-26.17,25.17-51.79,49.79-77.4,74.41a4.15,4.15,0,0,0,2.47.8c23.83,0,47.66,0,71.49,0,2.34,0,3.21-.71,3.22-3.14.08-15.56.31-31.11.44-46.67.06-7.33,0-14.67,0-22C257.49,484.36,257.38,483.49,257.27,481.79Z"/><path class="cls-1" d="M640.22,7.76,647.5,0"/><path class="cls-1" d="M804,0l7.33,7.76"/><path class="cls-1" d="M526,0l7.22,7.71"/><path class="cls-1" d="M367.27,7.71,374.5,0"/><path class="cls-1" d="M270.25,8A6.13,6.13,0,0,1,265.17,6c-1.81-2.06-3.77-4-5.67-6"/><path class="cls-1" d="M354.88,7.82c-1.44.08-2.3.18-3.16.18"/><path class="cls-1" d="M347.5,0"/><path class="cls-1" d="M897.74,8c-.75,0-1.5,0-2.25,0"/><path class="cls-1" d="M900,0"/><path class="cls-1" d="M0,570a17,17,0,0,1,1.53,1.28Q14.87,585.11,28.17,599c2.18,2.28,4.22,4.69,6.33,7"/><path class="cls-1" d="M1046,606c.72-.8,1.4-1.64,2.15-2.4q11.86-11.9,23.75-23.75c2-2,4.07-3.9,6.1-5.85"/><path class="cls-1" d="M34.5,606c-2.11-2.35-4.15-4.76-6.33-7Q14.88,585.09,1.53,571.28A17,17,0,0,0,0,570v-7c3.88,4,7.79,7.91,11.62,11.92,5.5,5.76,10.93,11.57,16.39,17.35L41,606Z"/><path class="cls-1" d="M1078,574c-2,2-4.1,3.86-6.1,5.85Q1060,591.7,1048.15,603.6c-.75.76-1.43,1.6-2.15,2.4h-6.5c.72-.8,1.41-1.64,2.17-2.4q16.95-17,33.93-33.93c.76-.76,1.6-1.45,2.4-2.17Z"/></g></g></svg>