<?xml version="1.0" encoding="utf-8"?>
<!-- Generator: Adobe Illustrator 25.1.0, SVG Export Plug-In . SVG Version: 6.00 Build 0)  -->
<svg version="1.1" id="Calque_1" xmlns="http://www.w3.org/2000/svg" xmlns:xlink="http://www.w3.org/1999/xlink" x="0px" y="0px"
	 viewBox="0 0 841.89 595.28" style="enable-background:new 0 0 841.89 595.28;" xml:space="preserve">
<style type="text/css">
	.st0{fill:#1D1D1B;}
	.st1{fill:#F3B62F;}
	.st2{fill:#00885E;}
	.st3{fill:#E9523F;}
	.st4{fill:#EF8008;}
	.st5{fill:#136DB4;}
	.st6{fill:#1D1E1C;}
</style>
<g>
	<g>
		<g>
			<path class="st0" d="M290.35,336.08v12.48h-61.37v-89.47h60.24v12.48h-46v25.58h39.95v11.59h-39.95v27.35H290.35z"/>
			<path class="st0" d="M331.69,349.82c-5.13,0-9.77-0.9-13.92-2.68c-4.16-1.79-7.75-4.29-10.77-7.49
				c-3.02-3.2-5.36-6.84-6.99-10.92c-1.64-4.08-2.46-8.36-2.46-12.86c0-6.16,1.39-11.8,4.16-16.92c2.77-5.12,6.74-9.2,11.91-12.24
				c5.17-3.04,11.19-4.56,18.08-4.56c6.72,0,12.58,1.49,17.58,4.47c5,2.98,8.72,6.95,11.15,11.91l-13.61,4.16
				c-1.51-2.69-3.61-4.81-6.3-6.36c-2.69-1.55-5.71-2.33-9.07-2.33c-3.7,0-7.04,0.93-10.02,2.8c-2.98,1.86-5.34,4.43-7.06,7.7
				c-1.72,3.27-2.58,7.06-2.58,11.37c0,4.23,0.88,7.99,2.65,11.31c1.76,3.31,4.16,5.94,7.18,7.89c3.02,1.95,6.34,2.92,9.96,2.92
				c2.27,0,4.45-0.4,6.55-1.2c2.1-0.8,3.97-1.91,5.61-3.34c1.64-1.43,2.79-2.94,3.47-4.54l13.48,4.16c-1.43,3.19-3.53,6.05-6.3,8.57
				c-2.77,2.52-6.09,4.52-9.96,5.99C340.55,349.08,336.31,349.82,331.69,349.82z"/>
			<path class="st0" d="M401.5,349.82c-5.13,0-9.77-0.9-13.92-2.68c-4.16-1.79-7.75-4.29-10.77-7.49c-3.02-3.2-5.36-6.84-6.99-10.92
				c-1.64-4.08-2.46-8.36-2.46-12.86c0-6.16,1.39-11.8,4.16-16.92c2.77-5.12,6.74-9.2,11.91-12.24c5.17-3.04,11.19-4.56,18.08-4.56
				c6.72,0,12.58,1.49,17.58,4.47c5,2.98,8.72,6.95,11.15,11.91l-13.61,4.16c-1.51-2.69-3.61-4.81-6.3-6.36
				c-2.69-1.55-5.71-2.33-9.07-2.33c-3.7,0-7.04,0.93-10.02,2.8c-2.98,1.86-5.34,4.43-7.06,7.7c-1.72,3.27-2.58,7.06-2.58,11.37
				c0,4.23,0.88,7.99,2.65,11.31c1.76,3.31,4.16,5.94,7.18,7.89c3.02,1.95,6.34,2.92,9.96,2.92c2.27,0,4.45-0.4,6.55-1.2
				c2.1-0.8,3.97-1.91,5.61-3.34c1.64-1.43,2.79-2.94,3.47-4.54l13.48,4.16c-1.43,3.19-3.53,6.05-6.3,8.57
				c-2.77,2.52-6.09,4.52-9.96,5.99C410.36,349.08,406.12,349.82,401.5,349.82z"/>
			<path class="st0" d="M471.06,349.82c-5.21,0-9.87-0.9-13.99-2.68c-4.12-1.79-7.67-4.27-10.65-7.43
				c-2.98-3.16-5.27-6.76-6.87-10.8c-1.6-4.04-2.39-8.3-2.39-12.8c0-4.66,0.8-9.01,2.39-13.05c1.59-4.04,3.88-7.64,6.87-10.8
				c2.98-3.16,6.55-5.64,10.71-7.43c4.16-1.79,8.8-2.69,13.92-2.69c5.21,0,9.85,0.9,13.93,2.69c4.07,1.79,7.62,4.27,10.65,7.43
				c3.02,3.16,5.33,6.76,6.93,10.8c1.59,4.04,2.39,8.39,2.39,13.05c0,4.5-0.8,8.76-2.39,12.8c-1.6,4.04-3.89,7.64-6.87,10.8
				c-2.98,3.16-6.55,5.64-10.71,7.43C480.83,348.92,476.19,349.82,471.06,349.82z M451.4,315.98c0,4.23,0.88,7.99,2.65,11.31
				c1.76,3.31,4.12,5.92,7.06,7.83c2.94,1.91,6.22,2.86,9.83,2.86c3.78,0,7.14-0.95,10.08-2.86c2.94-1.9,5.29-4.55,7.06-7.95
				c1.76-3.4,2.65-7.12,2.65-11.18c0-4.14-0.88-7.89-2.65-11.24c-1.76-3.36-4.14-5.98-7.12-7.89c-2.98-1.9-6.28-2.86-9.89-2.86
				c-3.7,0-7.02,0.99-9.96,2.98c-2.94,1.99-5.29,4.64-7.06,7.95C452.29,308.24,451.4,311.92,451.4,315.98z"/>
			<path class="st0" d="M228.98,453.57V364.1h31.76c9.66,0,17.71,2,24.13,5.99c6.43,3.99,11.28,9.37,14.55,16.13
				c3.28,6.76,4.91,14.26,4.91,22.49c0,9.07-1.79,16.97-5.36,23.69c-3.57,6.72-8.63,11.93-15.19,15.63
				c-6.55,3.7-14.24,5.55-23.06,5.55H228.98z M289.97,408.71c0-6.3-1.16-11.85-3.47-16.63c-2.31-4.79-5.63-8.57-9.96-11.34
				c-4.33-2.77-9.6-4.16-15.82-4.16h-17.52v64.52h17.52c6.3,0,11.61-1.43,15.94-4.28c4.33-2.86,7.62-6.72,9.89-11.59
				C288.84,420.35,289.97,414.84,289.97,408.71z"/>
			<path class="st0" d="M347.06,454.83c-5.21,0-9.87-0.9-13.99-2.68c-4.12-1.79-7.67-4.27-10.65-7.43
				c-2.98-3.16-5.27-6.76-6.87-10.8c-1.6-4.04-2.39-8.3-2.39-12.8c0-4.66,0.8-9.01,2.39-13.05c1.59-4.04,3.88-7.64,6.87-10.8
				c2.98-3.16,6.55-5.64,10.71-7.43c4.16-1.79,8.8-2.69,13.92-2.69c5.21,0,9.85,0.9,13.93,2.69c4.07,1.79,7.62,4.27,10.65,7.43
				c3.02,3.16,5.33,6.76,6.93,10.8c1.59,4.04,2.39,8.39,2.39,13.05c0,4.5-0.8,8.76-2.39,12.8c-1.6,4.04-3.89,7.64-6.87,10.8
				c-2.98,3.16-6.55,5.64-10.71,7.43C356.82,453.94,352.18,454.83,347.06,454.83z M327.4,421c0,4.23,0.88,7.99,2.65,11.31
				c1.76,3.31,4.12,5.92,7.06,7.83c2.94,1.91,6.22,2.86,9.83,2.86c3.78,0,7.14-0.95,10.08-2.86c2.94-1.9,5.29-4.55,7.06-7.95
				c1.76-3.4,2.65-7.12,2.65-11.18c0-4.14-0.88-7.89-2.65-11.24c-1.76-3.36-4.14-5.98-7.12-7.89c-2.98-1.9-6.28-2.86-9.89-2.86
				c-3.7,0-7.02,0.99-9.96,2.98c-2.94,1.99-5.29,4.64-7.06,7.95C328.28,413.25,327.4,416.94,327.4,421z"/>
			<path class="st0" d="M494.12,453.57h-13.74v-36.5c0-6.06-1.03-10.5-3.09-13.33c-2.06-2.82-5.02-4.24-8.88-4.24
				c-3.87,0-7.44,1.43-10.71,4.3c-3.28,2.86-5.63,6.58-7.06,11.15v38.61h-13.86v-36.5c0-6.14-0.99-10.61-2.96-13.39
				c-1.98-2.78-4.94-4.17-8.88-4.17c-3.78,0-7.33,1.38-10.65,4.15c-3.32,2.77-5.69,6.46-7.12,11.09v38.82h-13.86v-65.4h12.6v13.1
				c2.6-4.49,6.03-7.97,10.27-10.42c4.24-2.45,9.09-3.68,14.56-3.68c5.46,0,9.77,1.39,12.92,4.18c3.15,2.79,5.14,6.34,5.99,10.67
				c2.77-4.83,6.24-8.51,10.4-11.05c4.16-2.54,8.93-3.81,14.3-3.81c3.86,0,7.08,0.71,9.64,2.12c2.56,1.42,4.58,3.35,6.05,5.8
				c1.47,2.46,2.52,5.29,3.15,8.49c0.63,3.21,0.95,6.6,0.95,10.17V453.57z"/>
		</g>
		<g>
			<path class="st1" d="M272.15,121.29c0,0-25.57,28.43-36.8,58.36s-8.82,68.76-8.82,68.76s29.71-38.69,36.54-57.81
				C266.82,180.13,274.68,144.21,272.15,121.29z"/>
			<path class="st1" d="M276.99,121.29c0,0,25.57,28.43,36.8,58.36c11.23,29.93,8.82,68.76,8.82,68.76s-29.71-38.69-36.54-57.81
				C282.33,180.13,274.47,144.21,276.99,121.29z"/>
			<circle class="st1" cx="274.34" cy="228.06" r="13.07"/>
		</g>
		<polygon class="st2" points="534,251.85 607.38,251.85 607.38,349.51 533.23,349.32 585.95,300.59 		"/>
		<circle class="st3" cx="570.58" cy="408.2" r="44.99"/>
		<polygon class="st4" points="434.61,116.63 459.99,243.75 533.02,244 		"/>
		<path class="st5" d="M354.93,120.55c35.31,0,63.93,28.62,63.93,63.93s-28.62,63.93-63.93,63.93"/>
	</g>
	<rect x="228.22" y="470.05" class="st6" width="376.58" height="8.6"/>
</g>
</svg>
